<svg width="21" height="21" viewBox="0 0 21 21" fill="none" xmlns="http://www.w3.org/2000/svg">
<path opacity="0.3" fill-rule="evenodd" clip-rule="evenodd" d="M7.75861 9.91667C5.85418 9.91667 4.31033 8.42428 4.31033 6.58333C4.31033 4.74238 5.85418 3.25 7.75861 3.25C9.66304 3.25 11.2069 4.74238 11.2069 6.58333C11.2069 8.42428 9.66304 9.91667 7.75861 9.91667ZM16.3793 9.91667C15.9032 9.91667 15.5172 9.53071 15.5172 9.0546V7.41667H13.7644C13.3041 7.41667 12.931 7.04357 12.931 6.58333C12.931 6.1231 13.3041 5.75 13.7644 5.75H15.5172V4.11207C15.5172 3.63596 15.9032 3.25 16.3793 3.25C16.8554 3.25 17.2414 3.63596 17.2414 4.11207V5.75H18.9942C19.4545 5.75 19.8276 6.1231 19.8276 6.58333C19.8276 7.04357 19.4545 7.41667 18.9942 7.41667H17.2414V9.0546C17.2414 9.53071 16.8554 9.91667 16.3793 9.91667Z" fill="#20D489"/>
<path d="M0.000561797 17.5827C0.334706 13.6054 3.67406 11.5833 7.74426 11.5833C11.8717 11.5833 15.2628 13.4943 15.5154 17.5833C15.5255 17.7462 15.5154 18.25 14.8678 18.25C11.6734 18.25 6.92649 18.25 0.627157 18.25C0.410959 18.25 -0.0176394 17.7993 0.000561797 17.5827Z" fill="#20D489"/>
</svg>
