<svg width="46" height="47" viewBox="0 0 46 47" fill="none" xmlns="http://www.w3.org/2000/svg">
<rect opacity="0.8" y="0.5" width="46" height="46" rx="12" fill="#360673"/>
<g clip-path="url(#clip0_1038_6)">
<path d="M35.1521 44.4069L34.3665 38.1215C34.2479 37.1728 33.5951 36.3764 32.6881 36.0741L29.6586 35.0642C29.2426 34.9255 28.7862 35.0139 28.4654 35.2872L27.573 34.9897C27.0661 34.8207 26.7242 34.3464 26.7242 33.812V31.8102L29.3979 30.6961C30.7857 30.118 31.6896 28.762 31.6896 27.2586V26.6379C32.718 26.6379 33.5517 25.8042 33.5517 24.7758C33.5517 24.3119 33.3817 23.888 33.1011 23.562C33.6279 21.6442 35.1088 15.5779 33.5517 12.9828L34.1724 10.5C34.1724 10.5 27.6551 10.6552 24.2414 11.7414L25.4827 10.5C25.4827 10.5 16.7543 10.5 14.9316 13.6029L14.931 13.6034C14.931 13.6034 11.8276 13.5776 11.8276 17.3276C11.8276 18.7001 12.5931 22.1272 12.9218 23.5356C12.6275 23.8649 12.4483 24.2994 12.4483 24.7758C12.4483 25.8042 13.2819 26.6379 14.3103 26.6379V27.2586C14.3103 28.762 15.2143 30.1179 16.6021 30.6963L19.2759 31.8103V33.8121C19.2759 34.3465 18.9339 34.8208 18.4271 34.9898L17.5347 35.2873C17.2138 35.0139 16.7575 34.9256 16.3415 35.0643L13.312 36.0741C12.4049 36.3765 11.7521 37.1728 11.6335 38.1216L10.8479 44.407C10.709 45.5183 11.5755 46.4999 12.6955 46.4999H12.713H33.287H33.3044C34.4244 46.4999 35.2911 45.5183 35.1521 44.4069Z" fill="#FFD7A3"/>
<path d="M26.7241 31.8102L19.2758 31.8103V33.8121C19.2758 34.2589 19.0286 34.6525 18.6538 34.8719C23.8594 35.783 26.7241 31.8102 26.7241 31.8102Z" fill="#FDC88E"/>
<path d="M13.069 24.1551C13.069 24.1551 11.8276 19.0753 11.8276 17.3276C11.8276 13.5776 14.9311 13.6034 14.9311 13.6034L14.9316 13.6029C16.7544 10.5 25.4828 10.5 25.4828 10.5L24.2414 11.7414C27.6552 10.6552 34.1724 10.5 34.1724 10.5L33.5517 12.9828C35.4138 16.0862 32.931 24.1551 32.931 24.1551H13.069Z" fill="#734A3E"/>
<path d="M25.4828 10.5C25.4828 10.5 16.7544 10.5 14.9316 13.6029L14.9311 13.6034C14.9311 13.6034 11.8276 13.5776 11.8276 17.3276C11.8276 19.0753 13.069 24.1551 13.069 24.1551C13.069 24.1551 25.9742 18.3879 34.1724 10.5C34.1724 10.5 27.6552 10.6552 24.2414 11.7414L25.4828 10.5Z" fill="#623F33"/>
<path d="M31.6897 22.9138V21.6724C31.6897 19.9585 30.3002 18.569 28.5863 18.569H17.4139C15.6999 18.569 14.3104 19.9585 14.3104 21.6724V22.9138C13.282 22.9138 12.4484 23.7475 12.4484 24.7759C12.4484 25.8043 13.282 26.6379 14.3104 26.6379V27.2586C14.3104 28.762 15.2144 30.118 16.6022 30.6963L20.6127 32.3673C21.3691 32.6826 22.1805 32.8448 23 32.8448C23.8194 32.8448 24.6308 32.6825 25.3872 32.3673L29.398 30.6962C30.7857 30.118 31.6897 28.7621 31.6897 27.2586V26.6379C32.7181 26.6379 33.5518 25.8043 33.5518 24.7759C33.5518 23.7475 32.7181 22.9138 31.6897 22.9138Z" fill="#FFE1B2"/>
<path d="M18.6552 25.3965C18.3139 25.3965 18.0345 25.1172 18.0345 24.7758V24.1551C18.0345 23.8137 18.3139 23.5344 18.6552 23.5344C18.9966 23.5344 19.2759 23.8137 19.2759 24.1551V24.7758C19.2759 25.1172 18.9966 25.3965 18.6552 25.3965Z" fill="#623F33"/>
<path d="M27.3448 25.3965C27.0034 25.3965 26.7241 25.1172 26.7241 24.7758V24.1551C26.7241 23.8137 27.0034 23.5344 27.3448 23.5344C27.6862 23.5344 27.9655 23.8137 27.9655 24.1551V24.7758C27.9655 25.1172 27.6862 25.3965 27.3448 25.3965Z" fill="#623F33"/>
<path d="M23 29.7584C21.8965 29.7584 20.8643 29.4868 20.1681 29.0132C19.8848 28.8205 19.8111 28.4343 20.0042 28.151C20.1966 27.8679 20.5831 27.7942 20.8664 27.987C21.3543 28.3189 22.152 28.5171 23 28.5171C23.848 28.5171 24.6457 28.3189 25.1336 27.987C25.4176 27.7937 25.8031 27.8676 25.9958 28.151C26.1889 28.4343 26.1152 28.8205 25.8319 29.0132C25.1358 29.4868 24.1035 29.7584 23 29.7584Z" fill="#E4B07B"/>
<path d="M35.1521 44.4069L34.3665 38.1215C34.2479 37.1728 33.5951 36.3764 32.6881 36.0741L29.6586 35.0642C29.131 34.8883 28.5375 35.0762 28.2394 35.5457C27.1391 37.2793 25.2053 38.4309 23 38.4309C20.7947 38.4309 18.8608 37.2792 17.7606 35.5457C17.4626 35.0762 16.8691 34.8883 16.3415 35.0642L13.312 36.0741C12.4049 36.3764 11.7521 37.1728 11.6335 38.1215L10.8479 44.4069C10.709 45.5182 11.5756 46.4999 12.6956 46.4999H33.3045C34.4245 46.4999 35.2911 45.5182 35.1521 44.4069Z" fill="#00BEA4"/>
<path d="M12.151 36.8923C11.8754 37.2412 11.6909 37.6628 11.6335 38.1215L10.8479 44.4069C10.709 45.5183 11.5756 46.5 12.6956 46.5H16.1724V42.4603C16.1724 41.8631 15.9572 41.286 15.5662 40.8346L12.151 36.8923Z" fill="#00AB9A"/>
<path d="M33.849 36.8923C34.1245 37.2412 34.309 37.6628 34.3664 38.1215L35.152 44.4069C35.291 45.5183 34.4243 46.5 33.3043 46.5H29.8275V42.4603C29.8275 41.8631 30.0427 41.286 30.4337 40.8346L33.849 36.8923Z" fill="#00AB9A"/>
<path d="M17.5687 29.4095C17.0658 28.8703 16.7933 28.1588 16.7933 27.4214V20.3874C18.7688 20.2393 24.9975 19.7006 28.5863 18.569H17.4139C17.2002 18.569 16.9933 18.5939 16.7932 18.6373V18.6315C15.3767 18.9191 14.3104 20.171 14.3104 21.6724V22.9138C13.282 22.9138 12.4484 23.7474 12.4484 24.7759C12.4484 25.8043 13.282 26.6379 14.3104 26.6379V27.2586C14.3104 28.7621 15.2144 30.118 16.6022 30.6963L20.6126 32.3673C20.8089 32.4491 21.0092 32.5196 21.2121 32.5806C19.4397 31.284 18.2599 30.1505 17.5687 29.4095Z" fill="#FFD7A3"/>
</g>
<defs>
<clipPath id="clip0_1038_6">
<rect width="36" height="36" fill="white" transform="translate(5 10.5)"/>
</clipPath>
</defs>
</svg>
