<svg width="56" height="57" viewBox="0 0 56 57" fill="none" xmlns="http://www.w3.org/2000/svg">
<rect y="0.75" width="56" height="56" rx="12" fill="#E4FFF4"/>
<g clip-path="url(#clip0_91_1969)">
<path d="M41.5024 54.4243L40.6294 47.4405C40.4976 46.3864 39.7723 45.5016 38.7645 45.1656L35.3984 44.0436C34.9362 43.8894 34.4291 43.9876 34.0726 44.2913L33.0811 43.9608C32.5179 43.773 32.138 43.246 32.138 42.6523V40.428L35.1087 39.1901C36.6507 38.5478 37.6551 37.0412 37.6551 35.3707V34.681C38.7978 34.681 39.7241 33.7547 39.7241 32.612C39.7241 32.0966 39.5352 31.6256 39.2234 31.2633C39.8088 29.1325 41.4543 22.3921 39.7241 19.5086L40.4137 16.75C40.4137 16.75 33.1724 16.9224 29.3793 18.1293L30.7586 16.75C30.7586 16.75 21.0603 16.75 19.0351 20.1977L19.0345 20.1983C19.0345 20.1983 15.5862 20.1696 15.5862 24.3362C15.5862 25.8612 16.4368 29.6691 16.802 31.234C16.475 31.5999 16.2759 32.0826 16.2759 32.612C16.2759 33.7547 17.2022 34.681 18.3448 34.681V35.3707C18.3448 37.0411 19.3492 38.5477 20.8912 39.1903L23.862 40.4281V42.6524C23.862 43.2461 23.4821 43.7731 22.9189 43.9609L21.9274 44.2914C21.5709 43.9877 21.0639 43.8895 20.6016 44.0437L17.2355 45.1657C16.2277 45.5017 15.5023 46.3865 15.3706 47.4406L14.4977 54.4244C14.3433 55.6592 15.3061 56.7499 16.5506 56.7499H16.57H39.4299H39.4493C40.6938 56.7499 41.6567 55.6592 41.5024 54.4243Z" fill="#FFD7A3"/>
<path d="M32.1379 40.428L23.862 40.4281V42.6523C23.862 43.1488 23.5874 43.586 23.1709 43.8298C28.9549 44.8422 32.1379 40.428 32.1379 40.428Z" fill="#FDC88E"/>
<path d="M16.9655 31.9224C16.9655 31.9224 15.5862 26.2781 15.5862 24.3362C15.5862 20.1696 19.0345 20.1983 19.0345 20.1983L19.0351 20.1977C21.0604 16.75 30.7586 16.75 30.7586 16.75L29.3793 18.1293C33.1724 16.9224 40.4138 16.75 40.4138 16.75L39.7241 19.5086C41.7931 22.9569 39.0345 31.9224 39.0345 31.9224H16.9655Z" fill="#734A3E"/>
<path d="M30.7586 16.75C30.7586 16.75 21.0604 16.75 19.0351 20.1977L19.0345 20.1983C19.0345 20.1983 15.5862 20.1696 15.5862 24.3362C15.5862 26.2781 16.9656 31.9224 16.9656 31.9224C16.9656 31.9224 31.3047 25.5144 40.4138 16.75C40.4138 16.75 33.1724 16.9224 29.3793 18.1293L30.7586 16.75Z" fill="#623F33"/>
<path d="M37.6551 30.5432V29.1638C37.6551 27.2595 36.1113 25.7156 34.2069 25.7156H21.7931C19.8887 25.7156 18.3448 27.2595 18.3448 29.1638V30.5432C17.2022 30.5432 16.2759 31.4694 16.2759 32.6121C16.2759 33.7548 17.2022 34.6811 18.3448 34.6811V35.3707C18.3448 37.0412 19.3492 38.5478 20.8912 39.1904L25.3473 41.0471C26.1878 41.3974 27.0894 41.5776 27.9999 41.5776C28.9104 41.5776 29.8119 41.3973 30.6524 41.0471L35.1088 39.1903C36.6507 38.5479 37.6551 37.0412 37.6551 35.3707V34.6811C38.7978 34.6811 39.7241 33.7548 39.7241 32.6121C39.7241 31.4694 38.7978 30.5432 37.6551 30.5432Z" fill="#FFE1B2"/>
<path d="M23.1724 33.3017C22.7931 33.3017 22.4828 32.9913 22.4828 32.612V31.9224C22.4828 31.5431 22.7931 31.2327 23.1724 31.2327C23.5518 31.2327 23.8621 31.5431 23.8621 31.9224V32.612C23.8621 32.9913 23.5518 33.3017 23.1724 33.3017Z" fill="#623F33"/>
<path d="M32.8275 33.3017C32.4482 33.3017 32.1379 32.9913 32.1379 32.612V31.9224C32.1379 31.5431 32.4482 31.2327 32.8275 31.2327C33.2068 31.2327 33.5172 31.5431 33.5172 31.9224V32.612C33.5172 32.9913 33.2068 33.3017 32.8275 33.3017Z" fill="#623F33"/>
<path d="M28 38.1482C26.7739 38.1482 25.627 37.8465 24.8535 37.3202C24.5386 37.1061 24.4567 36.677 24.6713 36.3622C24.8851 36.0477 25.3145 35.9658 25.6293 36.18C26.1715 36.5487 27.0578 36.769 28 36.769C28.9422 36.769 29.8285 36.5487 30.3707 36.18C30.6862 35.9652 31.1146 36.0474 31.3287 36.3622C31.5432 36.677 31.4614 37.1061 31.1466 37.3202C30.3731 37.8465 29.2261 38.1482 28 38.1482Z" fill="#E4B07B"/>
<path d="M41.5024 54.4243L40.6294 47.4405C40.4977 46.3864 39.7723 45.5015 38.7645 45.1656L35.3984 44.0435C34.8122 43.8481 34.1527 44.0568 33.8216 44.5785C32.599 46.5047 30.4503 47.7843 28 47.7843C25.5496 47.7843 23.4009 46.5046 22.1784 44.5785C21.8473 44.0568 21.1878 43.8481 20.6016 44.0435L17.2355 45.1656C16.2277 45.5015 15.5023 46.3864 15.3706 47.4405L14.4977 54.4243C14.3433 55.6591 15.3062 56.7499 16.5507 56.7499H39.4494C40.6938 56.7499 41.6568 55.6591 41.5024 54.4243Z" fill="#00BEA4"/>
<path d="M15.9455 46.0748C15.6393 46.4625 15.4343 46.9309 15.3706 47.4406L14.4977 54.4244C14.3433 55.6593 15.3062 56.75 16.5507 56.75H20.4138V52.2615C20.4138 51.5979 20.1746 50.9567 19.7403 50.4552L15.9455 46.0748Z" fill="#00AB9A"/>
<path d="M40.0544 46.0748C40.3607 46.4625 40.5657 46.9309 40.6294 47.4406L41.5023 54.4244C41.6567 55.6593 40.6938 56.75 39.4493 56.75H35.5862V52.2615C35.5862 51.5979 35.8253 50.9567 36.2597 50.4552L40.0544 46.0748Z" fill="#00AB9A"/>
<path d="M21.9652 37.7606C21.4064 37.1615 21.1035 36.3709 21.1035 35.5516V27.7361C23.2986 27.5715 30.2194 26.973 34.207 25.7156H21.7931C21.5557 25.7156 21.3258 25.7432 21.1035 25.7915V25.7851C19.5296 26.1046 18.3448 27.4957 18.3448 29.1638V30.5432C17.2022 30.5432 16.2759 31.4694 16.2759 32.6121C16.2759 33.7548 17.2022 34.6811 18.3448 34.6811V35.3707C18.3448 37.0412 19.3492 38.5479 20.8912 39.1904L25.3472 41.0471C25.5653 41.138 25.7879 41.2162 26.0134 41.2841C24.0441 39.8434 22.7332 38.584 21.9652 37.7606Z" fill="#FFD7A3"/>
</g>
<defs>
<clipPath id="clip0_91_1969">
<rect width="40" height="40" fill="white" transform="translate(8 16.75)"/>
</clipPath>
</defs>
</svg>
