<svg width="56" height="57" viewBox="0 0 56 57" fill="none" xmlns="http://www.w3.org/2000/svg">
<rect y="0.75" width="56" height="56" rx="12" fill="#FFF8DD"/>
<g clip-path="url(#clip0_91_1885)">
<path d="M41.7813 53.2049L41.7187 52.6415C41.6939 52.4186 41.4932 52.2579 41.2703 52.2827L41.2352 52.2866L40.6295 47.4405C40.4976 46.3864 39.7723 45.5016 38.7645 45.1656L35.3983 44.0436C34.9361 43.8894 34.429 43.9875 34.0726 44.2913L33.081 43.9608C32.5177 43.773 32.1379 43.246 32.1379 42.6523V40.428L35.1087 39.1901C36.6508 38.5478 37.6551 37.0412 37.6551 35.3707V34.681C38.7978 34.681 39.7241 33.7547 39.7241 32.612C39.7241 32.267 39.6392 31.9419 39.4897 31.6558C39.6401 31.3153 39.7241 30.9391 39.7241 30.5431C39.7241 30.2638 39.6702 29.9996 39.5931 29.7456C40.0992 29.2455 40.4138 28.5521 40.4138 27.7845C40.4138 27.5052 40.3599 27.241 40.2827 26.987C40.7889 26.4869 41.1034 25.7935 41.1034 25.0258C41.1034 23.699 40.1661 22.5926 38.9179 22.3285C38.9863 22.0883 39.0345 21.8397 39.0345 21.5776C39.0345 20.054 37.7994 18.819 36.2758 18.819C35.7037 18.819 35.1723 18.9933 34.7316 19.2915C34.3552 18.2159 33.3421 17.4397 32.1379 17.4397C31.4577 17.4397 30.843 17.6953 30.362 18.1034C29.8809 17.2963 29.008 16.75 28.0001 16.75C26.9922 16.75 26.1194 17.2963 25.6381 18.1034C25.1571 17.6953 24.5424 17.4397 23.8622 17.4397C22.658 17.4397 21.6449 18.2159 21.2685 19.2915C20.8277 18.9933 20.2963 18.819 19.7242 18.819C18.2007 18.819 16.9656 20.054 16.9656 21.5776C16.9656 21.8397 17.0139 22.0883 17.0822 22.3285C15.8339 22.5926 14.8966 23.699 14.8966 25.0258C14.8966 25.7935 15.2111 26.4869 15.7173 26.987C15.6401 27.241 15.5862 27.5052 15.5862 27.7845C15.5862 28.5521 15.9008 29.2455 16.4069 29.7456C16.3298 29.9996 16.2759 30.2638 16.2759 30.5431C16.2759 30.9391 16.3599 31.3153 16.5103 31.6558C16.3609 31.9419 16.2759 32.267 16.2759 32.612C16.2759 33.7547 17.2022 34.681 18.3448 34.681V35.3707C18.3448 37.0411 19.3492 38.5477 20.8912 39.1903L23.8621 40.4281V42.6524C23.8621 43.2461 23.4822 43.7731 22.919 43.9609L21.9274 44.2914C21.571 43.9876 21.0639 43.8895 20.6016 44.0437L17.2355 45.1657C16.2277 45.5017 15.5023 46.3865 15.3705 47.4406L14.7648 52.2867L14.7297 52.2828C14.5068 52.258 14.3061 52.4186 14.2813 52.6416L14.2187 53.205C14.194 53.4279 14.3546 53.6286 14.5774 53.6534L15.5862 53.7654V55.3706C15.5862 56.1323 16.2038 56.7499 16.9655 56.7499H20.4138H35.5862H39.0345C39.7963 56.7499 40.4138 56.1323 40.4138 55.3706V53.7654L41.4226 53.6533C41.6454 53.6285 41.8061 53.4278 41.7813 53.2049Z" fill="#C38762"/>
<path d="M40.2828 26.987C40.7889 26.4869 41.1034 25.7935 41.1034 25.0258C41.1034 23.699 40.1661 22.5926 38.9179 22.3285C38.9862 22.0883 39.0344 21.8397 39.0344 21.5776C39.0344 20.054 37.7993 18.819 36.2758 18.819C35.7037 18.819 35.1723 18.9933 34.7316 19.2915C34.3551 18.2159 33.342 17.4397 32.1379 17.4397C31.4576 17.4397 30.843 17.6953 30.3619 18.1034C29.8808 17.2963 29.008 16.75 28.0001 16.75C26.9921 16.75 26.1194 17.2963 25.6381 18.1034C25.157 17.6953 24.5424 17.4397 23.8621 17.4397C22.658 17.4397 21.6449 18.2159 21.2684 19.2915C20.8277 18.9933 20.2963 18.819 19.7242 18.819C18.2007 18.819 16.9656 20.054 16.9656 21.5776C16.9656 21.8397 17.0139 22.0883 17.0821 22.3285C15.8339 22.5926 14.8965 23.699 14.8965 25.0258C14.8965 25.7935 15.2111 26.4869 15.7172 26.987C15.6401 27.241 15.5862 27.5051 15.5862 27.7845C15.5862 28.5521 15.9008 29.2455 16.4069 29.7456C16.3297 29.9996 16.2759 30.2638 16.2759 30.5431C16.2759 32.0666 17.5109 33.3017 19.0345 33.3017C19.0347 33.3017 19.035 33.3017 19.0353 33.3017H36.9647C36.9649 33.3017 36.9652 33.3017 36.9655 33.3017C38.4891 33.3017 39.7242 32.0666 39.7242 30.5431C39.7242 30.2638 39.6703 29.9996 39.5931 29.7456C40.0992 29.2455 40.4138 28.5521 40.4138 27.7845C40.4137 27.5051 40.3599 27.241 40.2828 26.987Z" fill="#623F33"/>
<path d="M35.5861 56.7502V53.3019H41.362L40.6293 47.4408C40.4975 46.3866 39.7722 45.5018 38.7643 45.1659L35.3982 44.0438C34.812 43.8484 34.1525 44.0571 33.8214 44.5788C32.599 46.505 30.4503 47.7846 28 47.7846C25.5498 47.7846 23.401 46.5049 22.1785 44.5787C21.8474 44.057 21.1879 43.8483 20.6017 44.0437L17.2356 45.1658C16.2277 45.5017 15.5024 46.3866 15.3706 47.4407L14.7146 52.6883L20.4138 53.3018V56.7501H35.5862V56.7502H35.5861Z" fill="#FFD739"/>
<path d="M32.138 40.4281L23.8621 38.589V42.6524C23.8621 43.1488 23.5875 43.5861 23.171 43.8299C28.9549 44.8423 32.138 40.4281 32.138 40.4281Z" fill="#A46D4D"/>
<path d="M37.6551 30.5431V28.4741C37.6551 26.5697 36.1112 24.3362 34.2068 24.3362H21.7931C19.8886 24.3362 18.3448 26.5697 18.3448 28.4741V30.5431C17.2021 30.5431 16.2758 31.4694 16.2758 32.612C16.2758 33.7547 17.2021 34.681 18.3448 34.681V35.3706C18.3448 37.0411 19.3492 38.5477 20.8912 39.1903L25.3473 41.047C26.1879 41.3973 27.0894 41.5775 28 41.5775C28.9105 41.5775 29.8119 41.3972 30.6525 41.047L35.1088 39.1902C36.6507 38.5478 37.6551 37.0412 37.6551 35.3706V34.681C38.7978 34.681 39.7241 33.7547 39.7241 32.612C39.7241 31.4694 38.7978 30.5431 37.6551 30.5431Z" fill="#D29771"/>
<path d="M23.1725 33.3017C22.7932 33.3017 22.4828 32.9913 22.4828 32.612V31.9224C22.4828 31.5431 22.7932 31.2327 23.1725 31.2327C23.5518 31.2327 23.8622 31.5431 23.8622 31.9224V32.612C23.8622 32.9913 23.5517 33.3017 23.1725 33.3017Z" fill="#623F33"/>
<path d="M32.8275 33.3017C32.4482 33.3017 32.1379 32.9913 32.1379 32.612V31.9224C32.1379 31.5431 32.4482 31.2327 32.8275 31.2327C33.2068 31.2327 33.5172 31.5431 33.5172 31.9224V32.612C33.5172 32.9913 33.2068 33.3017 32.8275 33.3017Z" fill="#623F33"/>
<path d="M28 38.1481C26.7739 38.1481 25.627 37.8464 24.8535 37.3201C24.5387 37.1059 24.4568 36.6769 24.6713 36.3621C24.8851 36.0476 25.3145 35.9657 25.6293 36.1799C26.1715 36.5486 27.0578 36.7689 28 36.7689C28.9423 36.7689 29.8286 36.5486 30.3707 36.1799C30.6862 35.9651 31.1146 36.0472 31.3287 36.3621C31.5432 36.6769 31.4614 37.1059 31.1466 37.3201C30.3731 37.8464 29.2261 38.1481 28 38.1481Z" fill="#A46D4D"/>
<path d="M20.4139 53.8223V52.2615C20.4139 51.5979 20.1748 50.9567 19.7404 50.4552L15.9456 46.0748C15.6394 46.4624 15.4344 46.9308 15.3707 47.4405L14.6504 53.2032C15.7472 53.2691 18.6648 53.6109 20.4139 53.8223Z" fill="#FFC33D"/>
<path d="M20.4139 52.9143L14.7298 52.2827C14.5068 52.258 14.3061 52.4186 14.2813 52.6414L14.2187 53.2049C14.194 53.4277 14.3546 53.6285 14.5774 53.6532L20.4139 54.3018V52.9143Z" fill="#FFB440"/>
<path d="M35.5862 53.8223V52.2615C35.5862 51.5979 35.8253 50.9567 36.2597 50.4552L40.0544 46.0748C40.3606 46.4624 40.5656 46.9308 40.6293 47.4405L41.3497 53.2032C40.2529 53.2691 37.3352 53.6109 35.5862 53.8223Z" fill="#FFC33D"/>
<path d="M35.5862 52.9143L41.2703 52.2827C41.4932 52.258 41.6939 52.4186 41.7187 52.6414L41.7813 53.2049C41.8061 53.4277 41.6454 53.6285 41.4226 53.6532L35.5862 54.3018V52.9143Z" fill="#FFB440"/>
<path d="M18.3448 24.4224V30.5431C17.2021 30.5431 16.2758 31.4694 16.2758 32.6121C16.2758 33.7547 17.2021 34.681 18.3448 34.681V35.3707C18.3448 37.0412 19.3492 38.5478 20.8912 39.1903L25.3472 41.047C25.5653 41.1379 25.7879 41.2162 26.0133 41.284C24.044 39.8434 22.7332 38.584 21.9651 37.7606C21.4063 37.1615 21.1034 36.3708 21.1034 35.5515V27.7649C21.8375 27.6831 22.4927 27.344 22.9813 26.8414C23.3575 27.0035 23.7713 27.0948 24.2069 27.0948C25.1549 27.0948 25.993 26.6607 26.5622 25.9909C26.9819 26.2489 27.4712 26.4052 28 26.4052C28.7081 26.4052 29.3473 26.1305 29.8358 25.6919C30.3712 26.1309 31.0468 26.4052 31.7931 26.4052C33.1106 26.4052 34.2282 25.5815 34.6762 24.4224H18.3448Z" fill="#C38762"/>
<path d="M37.6551 25.0258C37.6103 25.0258 37.5685 25.0362 37.5243 25.039C37.6043 24.8187 37.6551 24.5841 37.6551 24.3362C37.6551 23.1935 36.7288 22.2672 35.5862 22.2672C35.3352 22.2672 35.0977 22.3187 34.8751 22.4005C34.7645 20.7871 33.4346 19.5086 31.7931 19.5086C30.3799 19.5086 29.2007 20.459 28.8257 21.7513C28.5725 21.6407 28.2939 21.5776 28 21.5776C27.2259 21.5776 26.5593 22.0077 26.2044 22.637C25.7702 21.9978 25.0379 21.5776 24.207 21.5776C23.2194 21.5776 22.3731 22.1722 21.9993 23.0215C21.6198 22.5645 21.0543 22.2672 20.4139 22.2672C19.6452 22.2672 18.9749 22.6867 18.6182 23.3089C18.5708 23.3042 18.5227 23.3017 18.4741 23.3017C17.6885 23.3017 17.0517 23.9385 17.0517 24.7241C17.0517 24.9558 17.1083 25.1739 17.2066 25.3673C16.646 25.7374 16.2758 26.3727 16.2758 27.0948C16.2758 28.2375 17.2021 29.1638 18.3448 29.1638C19.4875 29.1638 20.4138 28.2375 20.4138 27.0948C20.4138 26.8469 20.363 26.6123 20.283 26.392C20.3271 26.3948 20.369 26.4051 20.4138 26.4051C21.1878 26.4051 21.8545 25.9751 22.2093 25.3457C22.6435 25.9849 23.376 26.4051 24.2069 26.4051C25.1945 26.4051 26.0407 25.8105 26.4145 24.9612C26.794 25.4182 27.3594 25.7155 28 25.7155C28.6864 25.7155 29.2902 25.3774 29.6666 24.8626C30.2226 25.388 30.9678 25.7155 31.7931 25.7155C32.4971 25.7155 33.139 25.472 33.6598 25.077C33.9583 25.8525 34.7054 26.4051 35.5862 26.4051C35.631 26.4051 35.6728 26.3948 35.7169 26.392C35.6369 26.6123 35.5862 26.8469 35.5862 27.0948C35.5862 28.2375 36.5124 29.1638 37.6551 29.1638C38.7978 29.1638 39.7241 28.2375 39.7241 27.0948C39.7241 25.9521 38.7978 25.0258 37.6551 25.0258Z" fill="#623F33"/>
</g>
<defs>
<clipPath id="clip0_91_1885">
<rect width="40" height="40" fill="white" transform="translate(8 16.75)"/>
</clipPath>
</defs>
</svg>
