<svg width="56" height="57" viewBox="0 0 56 57" fill="none" xmlns="http://www.w3.org/2000/svg">
<rect y="0.75" width="56" height="56" rx="12" fill="#E7F6FF"/>
<g clip-path="url(#clip0_91_1816)">
<path d="M41.7813 53.2048L41.7187 52.6414C41.6939 52.4184 41.4932 52.2578 41.2702 52.2826L41.2351 52.2865L40.6294 47.4404C40.4976 46.3863 39.7722 45.5015 38.7644 45.1655L35.3983 44.0435C34.936 43.8893 34.429 43.9875 34.0725 44.2912L33.0809 43.9607C32.5177 43.773 32.1378 43.2459 32.1378 42.6522V40.4279L35.1086 39.1901C36.6508 38.5477 37.6552 37.0411 37.6552 35.3706V34.6809C38.7978 34.6809 39.7241 33.7546 39.7241 32.612C39.7241 31.4693 38.7978 30.543 37.6552 30.543V29.1637C37.6552 27.2593 36.1113 25.7155 34.2069 25.7155H21.7932C19.8888 25.7155 18.3449 27.2593 18.3449 29.1637V30.543C17.2022 30.543 16.2759 31.4693 16.2759 32.612C16.2759 33.7546 17.2022 34.6809 18.3449 34.6809V35.3706C18.3449 37.041 19.3493 38.5476 20.8913 39.1902L23.8621 40.4281V42.6524C23.8621 43.2461 23.4822 43.7731 22.919 43.9609L21.9275 44.2914C21.571 43.9877 21.0639 43.8895 20.6017 44.0436L17.2356 45.1657C16.2277 45.5017 15.5024 46.3865 15.3706 47.4406L14.7648 52.2866L14.7297 52.2828C14.5068 52.258 14.3061 52.4186 14.2813 52.6415L14.2187 53.205C14.194 53.4278 14.3546 53.6286 14.5774 53.6533L15.5862 53.7654V55.3707C15.5862 56.1325 16.2037 56.75 16.9655 56.75H20.4138H35.5861H39.0344C39.7962 56.75 40.4137 56.1325 40.4137 55.3707V53.7654L41.4225 53.6533C41.6454 53.6284 41.8061 53.4277 41.7813 53.2048Z" fill="#FDC88E"/>
<path d="M32.1379 40.4281L23.862 38.5889V42.6523C23.862 43.1488 23.5874 43.586 23.1709 43.8298C28.9549 44.8422 32.1379 40.4281 32.1379 40.4281Z" fill="#F5B97A"/>
<path d="M37.6551 30.543V29.1637C37.6551 27.2593 36.1113 25.7155 34.2069 25.7155H21.7931C19.8887 25.7155 18.3449 27.2593 18.3449 29.1637V30.543C17.2022 30.543 16.2759 31.4693 16.2759 32.612C16.2759 33.7546 17.2022 34.6809 18.3449 34.6809V35.3706C18.3449 37.041 19.3493 38.5476 20.8912 39.1902L25.3473 41.0469C26.1878 41.3972 27.0894 41.5775 27.9999 41.5775C28.9104 41.5775 29.8119 41.3972 30.6524 41.0469L35.1088 39.1901C36.6507 38.5477 37.6551 37.0411 37.6551 35.3706V34.6809C38.7978 34.6809 39.7241 33.7546 39.7241 32.612C39.7241 31.4693 38.7978 30.543 37.6551 30.543Z" fill="#FFD7A3"/>
<path d="M23.1724 33.3016C22.7931 33.3016 22.4828 32.9913 22.4828 32.612V31.9223C22.4828 31.543 22.7931 31.2327 23.1724 31.2327C23.5517 31.2327 23.8621 31.543 23.8621 31.9223V32.612C23.8621 32.9913 23.5517 33.3016 23.1724 33.3016Z" fill="#623F33"/>
<path d="M32.8276 33.3016C32.4483 33.3016 32.1379 32.9913 32.1379 32.612V31.9223C32.1379 31.543 32.4483 31.2327 32.8276 31.2327C33.2069 31.2327 33.5172 31.543 33.5172 31.9223V32.612C33.5172 32.9913 33.2069 33.3016 32.8276 33.3016Z" fill="#623F33"/>
<path d="M28 38.148C26.7739 38.148 25.627 37.8463 24.8535 37.32C24.5387 37.1059 24.4568 36.6768 24.6713 36.362C24.8851 36.0475 25.3145 35.9656 25.6294 36.1798C26.1715 36.5486 27.0578 36.7688 28 36.7688C28.9423 36.7688 29.8286 36.5486 30.3707 36.1798C30.6862 35.965 31.1146 36.0472 31.3287 36.362C31.5432 36.6768 31.4614 37.1059 31.1466 37.32C30.3731 37.8463 29.2261 38.148 28 38.148Z" fill="#E4B07B"/>
<path d="M21.9652 37.7605C21.4064 37.1614 21.1036 36.3708 21.1036 35.5514V29.4647C23.0069 28.4352 28.569 25.7155 34.2069 25.7155H21.7931C21.5557 25.7155 21.3258 25.7431 21.1035 25.7914V25.7849C19.5296 26.1045 18.3449 27.4955 18.3449 29.1637V30.543C17.2022 30.543 16.2759 31.4693 16.2759 32.612C16.2759 33.7546 17.2022 34.6809 18.3449 34.6809V35.3706C18.3449 37.0411 19.3493 38.5477 20.8912 39.1902L25.3473 41.0469C25.5654 41.1378 25.7879 41.2161 26.0134 41.2839C24.0441 39.8432 22.7332 38.5839 21.9652 37.7605Z" fill="#FDC88E"/>
<path d="M39.7241 20.1983C39.7241 20.1983 39.4773 20.0171 39.0163 19.7448C38.8914 18.1542 38.3448 17.4397 38.3448 17.4397L35.8276 18.2787C33.6343 17.4867 30.5505 16.75 26.6207 16.75C26.6207 16.75 26.1681 17.2241 25.2414 17.4397C25.2414 17.4397 22.8923 16.9224 20.4138 16.75L19.0345 20.1983C19.0345 20.1983 15.5863 20.1696 15.5863 24.3362C15.5863 25.8673 16.4415 29.6899 16.8044 31.243C17.1833 30.8168 17.7297 30.543 18.3449 30.543V29.1637C18.3449 27.2764 19.8625 25.7478 21.7432 25.7205C21.2137 26.8691 21.1035 27.7844 21.1035 27.7844C22.8276 26.635 25.069 25.7155 28 25.7155H34.2069C36.1113 25.7155 37.6551 27.2594 37.6551 29.1637V30.543C38.3196 30.543 38.9044 30.8618 39.2829 31.3487C39.8807 29.8439 41.2473 25.5062 39.7241 20.1983Z" fill="#8DB9E2"/>
<path d="M38.3448 17.4397L35.8277 18.2787C33.6343 17.4867 30.5505 16.75 26.6207 16.75C26.6207 16.75 26.1681 17.2241 25.2414 17.4397C25.2414 17.4397 22.8923 16.9224 20.4138 16.75L19.0345 20.1983C19.0345 20.1983 15.5863 20.1696 15.5863 24.3362C15.5863 25.8673 16.4415 29.6899 16.8044 31.243C17.1833 30.8168 17.7297 30.543 18.3449 30.543V29.1637C18.3449 27.3637 19.7293 25.9026 21.4887 25.7462C21.3037 26.2605 21.1035 26.9933 21.1035 27.7844C23.819 24.3362 27.676 23.0921 30.7586 22.2672C33.819 21.4483 34.2069 20.1983 34.2069 20.1983C34.2069 20.1983 37.2241 20.0258 38.3448 17.4397Z" fill="#6AA2DE"/>
<path d="M35.5862 56.7501V53.3018H41.362L40.6293 47.4407C40.4975 46.3866 39.7722 45.5018 38.7643 45.1658L35.3982 44.0437C34.812 43.8483 34.1525 44.057 33.8214 44.5787C32.599 46.5049 30.4503 47.7845 28 47.7845C25.5496 47.7845 23.4009 46.5049 22.1784 44.5787C21.8473 44.0569 21.1878 43.8482 20.6016 44.0437L17.2355 45.1657C16.2277 45.5017 15.5024 46.3865 15.3705 47.4406L14.7146 52.6882L20.4138 53.3017V56.75H35.5862V56.7501Z" fill="#9BCE7A"/>
<path d="M20.4139 53.8223V52.2614C20.4139 51.5979 20.1747 50.9567 19.7403 50.4551L15.9456 46.0747C15.6394 46.4624 15.4344 46.9307 15.3707 47.4405L14.6504 53.2031C15.7473 53.269 18.6648 53.6108 20.4139 53.8223Z" fill="#8ABE69"/>
<path d="M20.4139 52.9142L14.7297 52.2827C14.5068 52.2579 14.3061 52.4185 14.2813 52.6414L14.2187 53.2048C14.194 53.4277 14.3546 53.6284 14.5774 53.6532L20.4139 54.3017V52.9142Z" fill="#76AB5F"/>
<path d="M35.5862 53.8223V52.2614C35.5862 51.5979 35.8253 50.9567 36.2597 50.4551L40.0544 46.0747C40.3606 46.4624 40.5656 46.9307 40.6294 47.4405L41.3497 53.2031C40.2529 53.269 37.3352 53.6108 35.5862 53.8223Z" fill="#8ABE69"/>
<path d="M35.5862 52.9142L41.2703 52.2827C41.4932 52.2579 41.6939 52.4185 41.7187 52.6414L41.7813 53.2048C41.8061 53.4277 41.6455 53.6284 41.4226 53.6532L35.5862 54.3017V52.9142Z" fill="#76AB5F"/>
<path d="M35.3983 44.0437C34.8121 43.8483 34.1526 44.057 33.8215 44.5787C32.599 46.5049 30.4503 47.7845 28 47.7845C25.5497 47.7845 23.401 46.5049 22.1785 44.5787C21.8473 44.0569 21.1879 43.8482 20.6017 44.0437L20.3787 44.118C21.6372 47.0837 24.5755 49.1638 28 49.1638C31.4245 49.1638 34.3629 47.0836 35.6212 44.1181L35.3983 44.0437Z" fill="#8ABE69"/>
<path d="M28 55.3705C28.3809 55.3705 28.6897 55.0617 28.6897 54.6809C28.6897 54.3 28.3809 53.9912 28 53.9912C27.6191 53.9912 27.3104 54.3 27.3104 54.6809C27.3104 55.0617 27.6191 55.3705 28 55.3705Z" fill="#82B8AD"/>
<path d="M22.4828 55.3705C22.8637 55.3705 23.1725 55.0617 23.1725 54.6809C23.1725 54.3 22.8637 53.9912 22.4828 53.9912C22.1019 53.9912 21.7932 54.3 21.7932 54.6809C21.7932 55.0617 22.1019 55.3705 22.4828 55.3705Z" fill="#82B8AD"/>
<path d="M33.5172 55.3705C33.8981 55.3705 34.2069 55.0617 34.2069 54.6809C34.2069 54.3 33.8981 53.9912 33.5172 53.9912C33.1363 53.9912 32.8276 54.3 32.8276 54.6809C32.8276 55.0617 33.1363 55.3705 33.5172 55.3705Z" fill="#82B8AD"/>
<path d="M30.7586 55.3705C31.1395 55.3705 31.4483 55.0617 31.4483 54.6809C31.4483 54.3 31.1395 53.9912 30.7586 53.9912C30.3777 53.9912 30.069 54.3 30.069 54.6809C30.069 55.0617 30.3777 55.3705 30.7586 55.3705Z" fill="#6AA2DE"/>
<path d="M25.2414 55.3705C25.6223 55.3705 25.9311 55.0617 25.9311 54.6809C25.9311 54.3 25.6223 53.9912 25.2414 53.9912C24.8605 53.9912 24.5518 54.3 24.5518 54.6809C24.5518 55.0617 24.8605 55.3705 25.2414 55.3705Z" fill="#6AA2DE"/>
<path d="M29.3793 53.3015C29.7602 53.3015 30.069 52.9928 30.069 52.6119C30.069 52.231 29.7602 51.9222 29.3793 51.9222C28.9984 51.9222 28.6897 52.231 28.6897 52.6119C28.6897 52.9928 28.9984 53.3015 29.3793 53.3015Z" fill="#6AA2DE"/>
<path d="M23.8621 53.3015C24.243 53.3015 24.5518 52.9928 24.5518 52.6119C24.5518 52.231 24.243 51.9222 23.8621 51.9222C23.4812 51.9222 23.1725 52.231 23.1725 52.6119C23.1725 52.9928 23.4812 53.3015 23.8621 53.3015Z" fill="#6AA2DE"/>
<path d="M34.8965 53.3015C35.2774 53.3015 35.5862 52.9928 35.5862 52.6119C35.5862 52.231 35.2774 51.9222 34.8965 51.9222C34.5156 51.9222 34.2069 52.231 34.2069 52.6119C34.2069 52.9928 34.5156 53.3015 34.8965 53.3015Z" fill="#6AA2DE"/>
<path d="M21.1035 53.3015C21.4844 53.3015 21.7932 52.9928 21.7932 52.6119C21.7932 52.231 21.4844 51.9222 21.1035 51.9222C20.7226 51.9222 20.4138 52.231 20.4138 52.6119C20.4138 52.9928 20.7226 53.3015 21.1035 53.3015Z" fill="#82B8AD"/>
<path d="M32.1379 53.3015C32.5188 53.3015 32.8276 52.9928 32.8276 52.6119C32.8276 52.231 32.5188 51.9222 32.1379 51.9222C31.757 51.9222 31.4483 52.231 31.4483 52.6119C31.4483 52.9928 31.757 53.3015 32.1379 53.3015Z" fill="#82B8AD"/>
<path d="M26.6207 53.3015C27.0016 53.3015 27.3104 52.9928 27.3104 52.6119C27.3104 52.231 27.0016 51.9222 26.6207 51.9222C26.2398 51.9222 25.9311 52.231 25.9311 52.6119C25.9311 52.9928 26.2398 53.3015 26.6207 53.3015Z" fill="#82B8AD"/>
</g>
<defs>
<clipPath id="clip0_91_1816">
<rect width="40" height="40" fill="white" transform="translate(8 16.75)"/>
</clipPath>
</defs>
</svg>
