<svg width="56" height="57" viewBox="0 0 56 57" fill="none" xmlns="http://www.w3.org/2000/svg">
<rect y="0.75" width="56" height="56" rx="12" fill="#FFF3F6"/>
<g clip-path="url(#clip0_91_1928)">
<path d="M44.5518 30.5431C44.5518 30.5431 41.7069 30.8879 40.4138 26.4052C38.6297 20.22 34.6655 16.75 28 16.75C21.3346 16.75 17.3704 20.22 15.5862 26.4052C14.2931 30.8879 11.4483 30.5431 11.4483 30.5431C11.4483 30.5431 9.89659 33.9914 13.5173 36.0603H12.138C12.138 36.0603 12.9764 40.2477 17.1986 40.8169C17.7352 42.0294 19.4139 43.6466 24.5518 43.6466H28H31.4483C36.5862 43.6466 38.2649 42.0293 38.8015 40.8169C43.0237 40.2477 43.8621 36.0603 43.8621 36.0603H42.4828C46.1035 33.9914 44.5518 30.5431 44.5518 30.5431Z" fill="#9D6E48"/>
<path d="M34.8966 30.5431C26.3621 26.2328 26.8793 18.6466 28 16.75C21.3347 16.75 17.3704 20.22 15.5862 26.4052C14.2931 30.8879 11.4483 30.5431 11.4483 30.5431C11.4483 30.5431 9.89659 33.9914 13.5173 36.0603H12.138C12.138 36.0603 12.9764 40.2477 17.1986 40.8169C17.7352 42.0294 19.4139 43.6466 24.5518 43.6466L34.8966 30.5431Z" fill="#8D5F3D"/>
<path d="M40.7911 54.4077L39.9991 48.4673C39.8299 47.199 38.9725 46.1287 37.7717 45.6869L33.081 43.961C32.5179 43.7733 32.1379 43.2462 32.1379 42.6525V40.4282L35.1087 39.1903C36.6508 38.5478 37.6552 37.0412 37.6552 35.3707V34.681C38.7979 34.681 39.7241 33.7547 39.7241 32.6121C39.7241 31.4694 38.7979 30.5431 37.6552 30.5431V29.1638C37.6552 27.2593 36.1113 25.7155 34.2069 25.7155H21.7931C19.8886 25.7155 18.3448 27.2594 18.3448 29.1638V30.5431C17.2022 30.5431 16.2759 31.4694 16.2759 32.6121C16.2759 33.7547 17.2022 34.681 18.3448 34.681V35.3707C18.3448 37.0412 19.3492 38.5478 20.8912 39.1903L23.8621 40.4282V42.6524C23.8621 43.2461 23.4822 43.7732 22.919 43.9609L18.2283 45.6868C17.0275 46.1286 16.1701 47.199 16.001 48.4672L15.2089 54.4076C15.0435 55.6479 16.0084 56.75 17.2597 56.75H28H38.7404C39.9916 56.75 40.9566 55.6479 40.7911 54.4077Z" fill="#F6B47B"/>
<path d="M23.8622 40.4569V42.6524C23.8622 43.1432 23.6021 43.5879 23.1939 43.8335C28.6898 44.7831 31.8312 40.8334 32.1166 40.4568H23.8622V40.4569Z" fill="#E2A071"/>
<path d="M37.6552 30.5431V29.1638C37.6552 27.2593 36.1113 25.7155 34.2069 25.7155H21.7931C19.8886 25.7155 18.3448 27.2594 18.3448 29.1638V30.5431C17.2022 30.5431 16.2759 31.4694 16.2759 32.6121C16.2759 33.7547 17.2022 34.681 18.3448 34.681V35.3707C18.3448 37.0412 19.3492 38.5478 20.8912 39.1903L25.3473 41.0471C26.1879 41.3973 27.0894 41.5776 27.9999 41.5776C28.9104 41.5776 29.8119 41.3973 30.6524 41.0471L35.1088 39.1903C36.6508 38.5478 37.6552 37.0412 37.6552 35.3707V34.681C38.7979 34.681 39.7242 33.7547 39.7242 32.6121C39.7242 31.4694 38.7979 30.5431 37.6552 30.5431Z" fill="#FDC88E"/>
<path d="M23.1724 33.3018C22.7931 33.3018 22.4828 32.9914 22.4828 32.6121V31.9224C22.4828 31.5431 22.7931 31.2328 23.1724 31.2328C23.5517 31.2328 23.8621 31.5431 23.8621 31.9224V32.6121C23.8621 32.9914 23.5517 33.3018 23.1724 33.3018Z" fill="#623F33"/>
<path d="M28 38.1481C26.7739 38.1481 25.627 37.8464 24.8535 37.3201C24.5386 37.106 24.4567 36.6769 24.6713 36.3621C24.8851 36.0476 25.3145 35.9657 25.6293 36.18C26.1715 36.5487 27.0578 36.7689 28 36.7689C28.9423 36.7689 29.8285 36.5487 30.3707 36.18C30.6862 35.9651 31.1146 36.0473 31.3287 36.3621C31.5432 36.6769 31.4614 37.106 31.1466 37.3201C30.3731 37.8464 29.2261 38.1481 28 38.1481Z" fill="#E2A071"/>
<path d="M35.917 44.9104L33.4354 48.8809C33.0573 49.4858 32.3942 49.8533 31.6809 49.8533H24.3191C23.6058 49.8533 22.9428 49.4858 22.5647 48.8809L20.0831 44.9104C19.8838 44.5915 19.4659 44.4911 19.1435 44.6845L16.8781 46.0437C16.5473 46.2422 16.4436 46.6735 16.6481 47.0006L19.7241 51.9223H36.2759L39.3519 47.0005C39.5564 46.6734 39.4527 46.2422 39.1219 46.0436L36.8566 44.6844C36.5342 44.4911 36.1162 44.5916 35.917 44.9104Z" fill="#F23F44"/>
<path d="M36.2759 51.9224H19.7242V56.75H36.2759V51.9224Z" fill="#FF4F4F"/>
<path d="M21.9652 37.7606C21.4064 37.1615 21.1036 36.3709 21.1036 35.5516V28.2359C23.4995 29.915 26.8139 31.2281 33.0001 31.5776L32.3967 29.5086C32.3967 29.5086 28.1071 27.0971 26.0173 25.7155H21.7931C21.5567 25.7155 21.3264 25.7403 21.1035 25.7857V25.785C21.0504 25.7958 20.9979 25.808 20.9457 25.8212C20.9409 25.8224 20.9359 25.8233 20.9311 25.8245C20.9298 25.8248 20.9288 25.8258 20.9275 25.8261C19.4423 26.2103 18.3448 27.5584 18.3448 29.1638V30.5431C17.2022 30.5431 16.2759 31.4694 16.2759 32.6121C16.2759 33.7547 17.2022 34.681 18.3448 34.681V35.3707C18.3448 37.0412 19.3492 38.5478 20.8912 39.1903L25.3473 41.0471C25.5654 41.1379 25.7879 41.2162 26.0134 41.2841C24.0441 39.8434 22.7332 38.5841 21.9652 37.7606Z" fill="#F6B47B"/>
<path d="M32.8276 33.3018C32.4483 33.3018 32.1379 32.9914 32.1379 32.6121V31.9224C32.1379 31.5431 32.4483 31.2328 32.8276 31.2328C33.2069 31.2328 33.5173 31.5431 33.5173 31.9224V32.6121C33.5173 32.9914 33.2069 33.3018 32.8276 33.3018Z" fill="#623F33"/>
<path d="M34.8966 30.5431L34.2069 29.1638C34.2069 29.1638 36.3891 30.5405 37.7414 30.5405V25.3707H21.4615C24.0674 27.8656 27.3163 30.5431 34.8966 30.5431Z" fill="#9D6E48"/>
<path d="M34.8966 30.5431C31.9989 29.0796 30.1456 27.2385 29.0041 25.3707H21.4614C24.0673 27.8656 27.3162 30.5431 34.8966 30.5431Z" fill="#8D5F3D"/>
</g>
<defs>
<clipPath id="clip0_91_1928">
<rect width="40" height="40" fill="white" transform="translate(8 16.75)"/>
</clipPath>
</defs>
</svg>
