<svg width="131" height="163" viewBox="0 0 131 163" fill="none" xmlns="http://www.w3.org/2000/svg">
<path d="M127.546 133.557C131.937 138.522 131.511 146.192 125.957 149.807C116.542 155.935 105.923 160.074 94.7542 161.915C79.6213 164.409 64.0918 162.583 49.9505 156.646C35.8092 150.709 23.6302 140.902 14.8133 128.352C5.99642 115.803 0.899531 101.02 0.108478 85.7036C-0.682574 70.3869 2.86432 55.1579 10.3415 41.767C17.8186 28.376 28.9225 17.3667 42.3769 10.0043C55.8314 2.64193 71.0901 -0.774603 86.3995 0.147402C97.6987 0.827899 108.687 3.85137 118.683 8.97644C124.581 12.0001 125.795 19.5859 121.939 24.9759L121.677 25.3419C117.821 30.732 110.351 31.8389 104.275 29.1932C98.1762 26.5377 91.631 24.9568 84.9296 24.5532C74.2131 23.9078 63.5319 26.2993 54.1139 31.453C44.6958 36.6067 36.923 44.3132 31.689 53.6869C26.455 63.0606 23.9722 73.7209 24.5259 84.4425C25.0797 95.1642 28.6475 105.512 34.8193 114.297C40.9911 123.081 49.5164 129.946 59.4153 134.102C69.3142 138.258 80.1849 139.536 90.7779 137.791C97.4021 136.699 103.75 134.452 109.542 131.182C115.314 127.925 122.857 128.256 127.248 133.22L127.546 133.557Z" fill="#20D489"/>
</svg>
