<svg width="131" height="119" viewBox="0 0 131 119" fill="none" xmlns="http://www.w3.org/2000/svg">
<path d="M127.546 89.5574C131.937 94.5215 131.511 102.192 125.957 105.807C113.227 114.092 98.3602 118.701 83.0156 118.986C63.6486 119.346 44.7865 112.797 29.8104 100.511C14.8343 88.2262 4.7235 71.0086 1.29032 51.945C-1.42981 36.8407 0.182892 21.3601 5.81914 7.2562C8.27851 1.102 15.7179 -0.815758 21.4447 2.51989L21.8335 2.74639C27.5603 6.08204 29.3601 13.4152 27.2938 19.7122C24.3616 28.6484 23.6644 38.2336 25.3532 47.6115C27.7565 60.956 34.834 73.0084 45.3173 81.608C55.8006 90.2076 69.004 94.7923 82.5609 94.5401C92.088 94.3629 101.352 91.8052 109.542 87.1824C115.314 83.9249 122.857 84.2562 127.248 89.2203L127.546 89.5574Z" fill="#8423FF"/>
</svg>
