<svg width="40" height="41" viewBox="0 0 40 41" fill="none" xmlns="http://www.w3.org/2000/svg">
<path opacity="0.3" fill-rule="evenodd" clip-rule="evenodd" d="M7.47574 18.8333C7.10405 18.8333 6.8623 18.4422 7.02853 18.1097L8.1952 15.7764C8.27989 15.607 8.45302 15.5 8.64241 15.5H25.8577C26.2294 15.5 26.4711 15.8912 26.3049 16.2236L25.1383 18.5569C25.0536 18.7263 24.8804 18.8333 24.691 18.8333H7.47574ZM24.191 22.1667C24.5627 22.1667 24.8045 22.5578 24.6383 22.8903L23.4716 25.2236C23.3869 25.393 23.2138 25.5 23.0244 25.5H7.47574C7.10405 25.5 6.8623 25.1088 7.02853 24.7764L8.1952 22.4431C8.27989 22.2737 8.45302 22.1667 8.64241 22.1667H24.191Z" fill="#B5B5C3"/>
<path fill-rule="evenodd" clip-rule="evenodd" d="M28.9483 13.1967C28.295 12.31 27.4433 11.6625 26.3933 11.2542C25.3433 10.8459 24.3166 10.6417 23.3133 10.6417C22.03 10.6417 20.8633 10.875 19.8133 11.3417C18.7633 11.8084 17.8591 12.45 17.1008 13.2667C16.3425 14.0834 15.7591 15.04 15.3508 16.1367C14.9425 17.2334 14.7383 18.4234 14.7383 19.7067C14.7383 21.0601 14.9366 22.2967 15.3333 23.4167C15.73 24.5367 16.2958 25.4992 17.0308 26.3042C17.7658 27.1092 18.6466 27.7334 19.6733 28.1767C20.7 28.6201 21.855 28.8417 23.1383 28.8417C24.4683 28.8417 25.6466 28.5792 26.6733 28.0542C27.7 27.5292 28.5283 26.8351 29.1583 25.9717L32.6933 28.4567C31.5966 29.8334 30.255 30.9009 28.6683 31.6592C27.0816 32.4176 25.2266 32.7967 23.1033 32.7967C21.1666 32.7967 19.3875 32.4759 17.7658 31.8342C16.1441 31.1925 14.75 30.2942 13.5833 29.1392C12.4166 27.9842 11.5066 26.6076 10.8533 25.0092C10.2 23.4109 9.87329 21.6434 9.87329 19.7067C9.87329 17.7234 10.2175 15.9326 10.9058 14.3342C11.5941 12.7359 12.5391 11.3767 13.7408 10.2567C14.9425 9.13671 16.36 8.27338 17.9933 7.66671C19.6266 7.06004 21.3999 6.75671 23.3133 6.75671C24.1066 6.75671 24.935 6.83255 25.7983 6.98421C26.6616 7.13588 27.49 7.36921 28.2833 7.68421C29.0766 7.99922 29.8233 8.39004 30.5233 8.85671C31.2233 9.32338 31.8183 9.88338 32.3083 10.5367L28.9483 13.1967Z" fill="#B5B5C3"/>
</svg>
