<svg width="443" height="315" viewBox="0 0 443 315" fill="none" xmlns="http://www.w3.org/2000/svg">
<g clip-path="url(#clip0_16_90)">
<path d="M132.982 208.311C136.992 205.398 135.519 196.537 129.693 188.518C123.867 180.5 115.894 176.361 111.884 179.274C107.875 182.187 109.348 191.048 115.174 199.067C121 207.085 128.973 211.224 132.982 208.311Z" fill="#3BAF00"/>
<path d="M120.016 191.627C136.839 210.062 147.887 238.484 153.15 276.898L153.658 276.829C148.382 238.32 137.297 209.803 120.395 191.282L120.016 191.627Z" fill="#3F3643"/>
<path d="M136.741 248.701C140.184 245.136 137.194 236.665 130.064 229.781C122.935 222.896 114.364 220.204 110.921 223.769C107.478 227.334 110.468 235.805 117.598 242.69C124.727 249.574 133.298 252.266 136.741 248.701Z" fill="#3BAF00"/>
<path d="M122.266 234.353C136.595 246.726 145.885 260.965 150.142 277.076L150.638 276.945C146.353 260.731 137.006 246.403 122.601 233.965L122.266 234.353Z" fill="#3F3643"/>
<path fill-rule="evenodd" clip-rule="evenodd" d="M95 283.008H244.729C243.896 274.662 232.993 250.504 216.013 241.989C195.665 231.785 177.464 250.967 173.821 256.059C162.04 272.527 153.449 267.695 136.528 260.797C119.608 253.899 105.765 261.303 95 283.008Z" fill="#5ED300"/>
<path d="M187.212 241.488C182.837 243.814 175.517 238.606 170.864 229.855C166.211 221.104 165.986 212.124 170.361 209.798C174.737 207.471 182.057 212.679 186.71 221.43C191.363 230.181 191.588 239.161 187.212 241.488Z" fill="#3BAF00"/>
<path d="M48.7743 273.122C44.3985 275.448 37.0789 270.24 32.4257 261.489C27.7724 252.738 27.5474 243.758 31.9232 241.432C36.299 239.105 43.6185 244.313 48.2718 253.064C52.9251 261.815 53.1501 270.795 48.7743 273.122Z" fill="#3BAF00"/>
<path d="M178.09 223.272C187.314 238.168 192.767 254.628 194.449 272.65L193.939 272.698C192.264 254.754 186.836 238.37 177.654 223.542L178.09 223.272Z" fill="#3F3643"/>
<path d="M39.652 254.906C48.8758 269.802 54.329 286.263 56.0113 304.284L55.5007 304.332C53.8258 286.388 48.3977 270.004 39.216 255.176L39.652 254.906Z" fill="#3F3643"/>
<path d="M208.929 238.107C204.595 235.705 204.977 226.73 209.782 218.061C214.587 209.393 221.997 204.313 226.331 206.716C230.666 209.118 230.284 218.093 225.479 226.762C220.673 235.43 213.264 240.51 208.929 238.107Z" fill="#3BAF00"/>
<path d="M70.4912 269.741C66.1567 267.339 66.5383 258.364 71.3437 249.696C76.149 241.027 83.5583 235.948 87.8929 238.35C92.2274 240.753 91.8457 249.727 87.0404 258.396C82.2351 267.064 74.8257 272.144 70.4912 269.741Z" fill="#3BAF00"/>
<path d="M218.674 220.139C208.589 236.161 203.868 252.494 204.508 269.145L203.996 269.164C203.352 252.407 208.102 235.972 218.241 219.866L218.674 220.139Z" fill="#3F3643"/>
<path d="M80.2362 251.774C70.1506 267.795 65.43 284.128 66.0698 300.779L65.5574 300.799C64.9135 284.041 69.6633 267.606 79.8023 251.5L80.2362 251.774Z" fill="#3F3643"/>
<path fill-rule="evenodd" clip-rule="evenodd" d="M282.939 282.923C274.912 269.085 265.522 265.351 254.769 271.721C238.639 281.276 238.952 269.239 227.082 256.002C221.612 249.903 207.237 249.063 199.331 256.916C188.951 267.226 181.781 275.924 177.822 283.008L282.939 282.923Z" fill="#41AD00"/>
<path d="M311.995 225.027C314.621 226.422 319.012 223.298 321.804 218.048C324.595 212.797 324.73 207.41 322.105 206.014C319.48 204.618 315.089 207.743 312.297 212.993C309.505 218.243 309.37 223.631 311.995 225.027Z" fill="#3BAF00"/>
<path d="M317.446 214.098C311.912 223.035 308.64 232.91 307.631 243.722L307.937 243.751C308.942 232.986 312.199 223.156 317.707 214.26L317.446 214.098Z" fill="#3F3643"/>
<path d="M305.978 212.025C308.922 212.439 311.98 208.001 312.807 202.113C313.635 196.224 311.919 191.116 308.975 190.702C306.03 190.288 302.972 194.726 302.145 200.614C301.317 206.503 303.033 211.612 305.978 212.025Z" fill="#3BAF00"/>
<path d="M307.059 200.824C306.25 208.96 305.857 215.663 305.882 220.936C305.907 226.208 306.368 234.113 307.266 244.651L307.572 244.625C306.676 234.094 306.215 226.197 306.19 220.935C306.165 215.674 306.557 208.98 307.365 200.855L307.059 200.824Z" fill="#3F3643"/>
<path d="M294.27 203.509C296.676 201.762 295.792 196.445 292.297 191.635C288.802 186.824 284.018 184.341 281.613 186.089C279.207 187.836 280.091 193.153 283.586 197.963C287.081 202.774 291.865 205.257 294.27 203.509Z" fill="#3BAF00"/>
<path d="M286.491 193.5C296.584 204.56 303.213 221.612 306.37 244.659L306.675 244.617C303.51 221.514 296.859 204.405 286.718 193.293L286.491 193.5Z" fill="#3F3643"/>
<path d="M297.756 227.742C299.822 225.603 298.028 220.521 293.751 216.39C289.473 212.26 284.331 210.645 282.265 212.784C280.2 214.922 281.993 220.005 286.271 224.135C290.549 228.266 295.691 229.88 297.756 227.742Z" fill="#3BAF00"/>
<path d="M289.072 219.134C297.669 226.557 303.242 235.1 305.796 244.765L306.094 244.687C303.523 234.959 297.915 226.363 289.273 218.901L289.072 219.134Z" fill="#3F3643"/>
<path fill-rule="evenodd" clip-rule="evenodd" d="M302.012 242.396H310.679C311.967 246.404 313.011 249.38 313.809 251.324C315.007 254.239 315.895 255.655 316.819 257.795C317.743 259.935 319.423 264.084 319.423 269.8C319.423 273.61 319.236 278.298 318.862 283.863H293.83C293.456 278.298 293.269 273.61 293.269 269.8C293.269 264.084 294.949 259.935 295.873 257.795C296.797 255.655 297.685 254.239 298.883 251.324C299.681 249.38 300.724 246.404 302.012 242.396Z" fill="white"/>
<path d="M309.096 247.728L309.127 247.733C310.677 247.836 311.693 247.483 312.146 246.654L311.876 246.506C311.493 247.206 310.598 247.52 309.163 247.428C307.536 246.981 306.2 247.069 305.162 247.7L305.136 247.72C303.583 249.199 303.972 251.002 306.242 253.058C307.661 254.287 308.506 255.86 308.782 257.785C308.665 260.175 309.463 261.972 311.173 263.124C313.581 264.214 314.798 265.844 314.871 268.043C315.211 272.53 316.712 275.105 319.387 275.732L319.458 275.432C316.94 274.842 315.509 272.388 315.178 268.026C315.102 265.71 313.809 263.979 311.322 262.856C309.729 261.78 308.977 260.088 309.088 257.771C308.8 255.743 307.919 254.103 306.446 252.827C304.302 250.885 303.951 249.284 305.336 247.954C306.295 247.378 307.546 247.3 309.096 247.728Z" fill="#A2A7F7"/>
<path d="M308.041 250.866C312.195 254.072 315.243 256.784 317.185 258.999L317.416 258.796C315.459 256.563 312.397 253.84 308.229 250.622L308.041 250.866Z" fill="#A2A7F7"/>
<path d="M300.32 256.78C299.148 257.372 298.261 258.8 297.67 261.042C296.849 262.844 295.604 263.779 293.929 263.844L293.941 264.151C295.739 264.081 297.084 263.072 297.959 261.144C298.539 258.955 299.38 257.599 300.481 257.041C302.447 255.595 302.787 254.185 301.462 252.884L301.437 252.864C300.398 252.201 299.312 252.151 298.2 252.715L298.339 252.989C299.349 252.477 300.315 252.519 301.258 253.114C302.415 254.26 302.122 255.453 300.32 256.78Z" fill="#A2A7F7"/>
<path d="M299.924 254.367C298.285 255.316 297.022 256.181 296.133 256.962L296.337 257.193C297.208 256.427 298.455 255.573 300.078 254.633L299.924 254.367Z" fill="#A2A7F7"/>
<path d="M306.499 283.853C306.404 282.369 306.725 281.154 307.461 280.199C309.63 277.779 309.897 274.91 308.257 271.635C307.078 269.843 307.034 267.819 308.121 265.527C309.219 262.537 308.609 260.511 306.292 259.506C303.892 258.923 302.32 259.923 301.604 262.453C301.012 263.887 300.204 264.996 299.189 265.764C297.687 266.997 296.811 268.041 296.558 268.915C296.228 270.054 296.179 270.737 296.235 272.581C296.264 273.546 295.33 274.835 293.416 276.424L293.613 276.66C295.594 275.016 296.576 273.661 296.543 272.572C296.488 270.757 296.534 270.102 296.853 269C297.085 268.201 297.926 267.198 299.379 266.006C300.436 265.206 301.276 264.053 301.894 262.554C302.572 260.161 303.986 259.262 306.195 259.796C308.322 260.722 308.879 262.572 307.838 265.408C306.712 267.78 306.759 269.917 307.991 271.788C309.567 274.939 309.313 277.671 307.225 280.003C306.433 281.029 306.092 282.318 306.192 283.873L306.499 283.853Z" fill="#A2A7F7"/>
<path d="M304.916 263.637C302.289 273.546 300.304 280.271 298.962 283.808L299.249 283.917C300.596 280.367 302.584 273.635 305.213 263.716L304.916 263.637Z" fill="#A2A7F7"/>
<path fill-rule="evenodd" clip-rule="evenodd" d="M368.147 215.376C370.086 214.951 372.225 214.984 374.2 215.019C384.787 215.163 395.183 220.194 401.95 228.232C407.71 235.076 409.294 243.584 410.432 252.184C410.544 253.038 410.593 253.887 410.656 254.742C410.67 254.926 410.691 255.09 410.712 255.244C411.16 255.645 411.395 256.114 411.13 256.628C412.116 258.793 412.95 261.013 413.665 263.303C415.771 270.044 417.914 276.912 416.594 284C416.286 280.1 415.637 276.111 414.861 272.275C414.817 272.054 414.769 271.836 414.718 271.618C414.713 271.595 414.709 271.572 414.703 271.549C414.429 270.375 414.072 269.235 413.638 268.113C413.633 268.101 413.629 268.089 413.624 268.077C413.567 267.929 413.506 267.782 413.446 267.636C413.322 267.332 413.194 267.028 413.058 266.726C413.013 266.624 412.969 266.52 412.926 266.415C412.294 264.861 412.028 263.109 411.461 261.501C411.326 261.135 411.184 260.771 411.036 260.408C411.027 260.387 411.018 260.366 411.01 260.345C410.609 259.369 410.166 258.406 409.697 257.453C409.443 257.261 409.307 256.784 409.087 256.352C409.042 256.266 408.687 255.697 408.581 255.37C408.305 254.834 408.031 254.298 407.753 253.764C407.761 253.767 407.769 253.77 407.778 253.773C407.5 253.26 407.221 252.749 406.944 252.24C406.883 252.128 406.822 252.016 406.761 251.904C406.661 251.725 406.562 251.547 406.463 251.369C405.536 249.703 404.552 248.071 403.531 246.459C403.167 245.883 402.296 245.059 402.129 244.413C402.123 244.388 402.121 244.366 402.118 244.343C399.902 241.22 397.351 238.339 394.292 236.056C394.662 236.457 395.448 237.819 395.655 238.088C396.291 238.913 396.982 239.682 397.675 240.459C398.916 241.852 400.127 243.289 401.204 244.809C403.173 247.588 404.872 250.513 406.478 253.497C406.493 253.515 406.51 253.531 406.524 253.549C407.331 254.548 407.839 256.057 408.42 257.199C406.121 256.13 403.579 255.434 401.219 254.485C398.866 253.539 396.577 252.485 394.367 251.248C391.43 249.604 388.383 247.748 385.608 245.647C382.428 243.667 379.755 240.942 377.396 238.082C374.605 234.698 372.047 231.285 370.465 227.177C369.688 225.158 369.077 223.053 368.714 220.923C368.699 220.83 368.678 220.729 368.656 220.625C368.285 219.889 367.954 219.137 367.676 218.368C367.234 217.147 366.191 215.805 368.147 215.376Z" fill="#5ED300"/>
<path fill-rule="evenodd" clip-rule="evenodd" d="M394.123 259.046C393.704 258.742 392.713 258.634 392.251 258.543C390.333 258.165 388.357 258 386.402 258C380.372 258.009 374.244 258.601 368.314 259.625C364.55 260.276 359.998 262.464 356.253 261.276C349.729 259.205 343.134 259.307 336.944 262.263C331.285 264.967 326.989 270.101 324.481 275.65C324.103 276.487 322.568 279.57 322.134 281.648C321.948 282.073 321.77 282.5 321.609 282.934C321.152 284.167 320.743 285.422 320.363 286.679C320.2 287.215 319.791 288.398 320.277 288.627C319.501 290.059 318.813 291.534 318.241 293.058C316.575 297.488 314.754 302.347 314.169 307.042C313.952 308.781 313.944 310.529 314.145 312.271C314.245 313.132 314.204 314.864 314.787 315.518C316.026 316.907 316.662 314.963 316.522 314.036C315.456 306.977 317.515 300.348 319.955 293.712C321.533 289.421 324.126 285.495 327.031 281.94C329.381 279.062 331.903 276.796 335.126 274.888C339.066 272.555 343.279 270.669 347.453 268.777C350.198 267.532 352.947 266.32 355.769 265.248C356.396 265.009 357.384 264.397 358.079 264.395C359.551 264.389 361.636 265.475 363.057 265.879C367.732 267.208 372.466 268.91 377.297 269.589C380.396 270.024 383.299 269.534 386.197 268.502C386.493 268.396 386.99 268.125 387.598 267.738C389.749 266.91 391.785 265.869 393.557 264.366C394.578 263.5 395.504 262.381 396.349 261.357C396.602 261.05 396.714 260.699 396.718 260.366C396.909 260.266 397.036 260.149 397.065 260.012C397.276 259.004 395.353 258.986 394.123 259.046Z" fill="#5ED300"/>
</g>
<defs>
<clipPath id="clip0_16_90">
<rect width="443" height="315" fill="white"/>
</clipPath>
</defs>
</svg>
