<svg width="296" height="210" viewBox="0 0 296 210" fill="none" xmlns="http://www.w3.org/2000/svg">
<g clip-path="url(#clip0_1032_0)">
<path d="M88.8548 138.874C91.5338 136.932 90.5498 131.024 86.657 125.679C82.7642 120.333 77.4368 117.574 74.7578 119.516C72.0788 121.458 73.0628 127.365 76.9556 132.711C80.8484 138.056 86.1758 140.816 88.8548 138.874Z" fill="#3BAF00"/>
<path d="M80.191 127.751C91.4318 140.041 98.8138 158.989 102.331 184.599L102.67 184.553C99.1446 158.88 91.7381 139.869 80.4441 127.521L80.191 127.751Z" fill="#3F3643"/>
<path d="M91.3664 165.801C93.6667 163.424 91.6695 157.777 86.9054 153.187C82.1414 148.597 76.4147 146.803 74.1144 149.179C71.8141 151.556 73.8113 157.203 78.5754 161.793C83.3394 166.383 89.0662 168.177 91.3664 165.801Z" fill="#3BAF00"/>
<path d="M81.6945 156.235C91.2689 164.484 97.4763 173.977 100.32 184.717L100.652 184.63C97.7892 173.82 91.5435 164.269 81.9184 155.977L81.6945 156.235Z" fill="#3F3643"/>
<path fill-rule="evenodd" clip-rule="evenodd" d="M63.4764 188.672H163.521C162.964 183.108 155.68 167.002 144.334 161.326C130.738 154.524 118.577 167.311 116.142 170.706C108.271 181.685 102.53 178.463 91.2244 173.865C79.9186 169.266 70.6693 174.202 63.4764 188.672Z" fill="#5ED300"/>
<path d="M125.09 160.992C122.166 162.543 117.276 159.071 114.166 153.237C111.057 147.403 110.907 141.416 113.831 139.865C116.754 138.314 121.645 141.786 124.754 147.62C127.864 153.454 128.014 159.441 125.09 160.992Z" fill="#3BAF00"/>
<path d="M32.5897 182.081C29.6659 183.632 24.7752 180.16 21.666 174.326C18.5568 168.492 18.4065 162.505 21.3302 160.954C24.254 159.403 29.1447 162.875 32.2539 168.709C35.3631 174.543 35.5134 180.53 32.5897 182.081Z" fill="#3BAF00"/>
<path d="M118.995 148.848C125.158 158.779 128.802 169.752 129.926 181.766L129.584 181.798C128.465 169.836 124.838 158.913 118.703 149.028L118.995 148.848Z" fill="#3F3643"/>
<path d="M26.4944 169.937C32.6574 179.868 36.3012 190.842 37.4252 202.856L37.084 202.888C35.9649 190.926 32.338 180.003 26.2031 170.117L26.4944 169.937Z" fill="#3F3643"/>
<path d="M139.601 158.738C136.705 157.136 136.96 151.153 140.17 145.374C143.381 139.595 148.332 136.209 151.228 137.811C154.124 139.412 153.869 145.395 150.659 151.174C147.448 156.953 142.497 160.34 139.601 158.738Z" fill="#3BAF00"/>
<path d="M47.1002 179.827C44.204 178.226 44.459 172.243 47.6698 166.464C50.8806 160.685 55.8313 157.298 58.7275 158.9C61.6237 160.502 61.3687 166.485 58.1579 172.264C54.9471 178.043 49.9964 181.429 47.1002 179.827Z" fill="#3BAF00"/>
<path d="M146.112 146.76C139.373 157.44 136.219 168.329 136.647 179.43L136.304 179.443C135.874 168.271 139.048 157.315 145.822 146.578L146.112 146.76Z" fill="#3F3643"/>
<path d="M53.6116 167.849C46.8727 178.53 43.7185 189.419 44.146 200.519L43.8037 200.532C43.3734 189.36 46.5471 178.404 53.3217 167.667L53.6116 167.849Z" fill="#3F3643"/>
<path fill-rule="evenodd" clip-rule="evenodd" d="M189.052 188.615C183.689 179.39 177.414 176.901 170.229 181.147C159.452 187.517 159.661 179.493 151.73 170.668C148.075 166.602 138.47 166.042 133.188 171.277C126.252 178.151 121.461 183.949 118.815 188.672L189.052 188.615Z" fill="#41AD00"/>
<path d="M208.466 150.018C210.221 150.948 213.155 148.865 215.02 145.365C216.886 141.865 216.976 138.273 215.222 137.342C213.467 136.412 210.533 138.495 208.668 141.995C206.802 145.495 206.712 149.087 208.466 150.018Z" fill="#3BAF00"/>
<path d="M212.108 142.732C208.411 148.69 206.225 155.273 205.55 162.482L205.755 162.501C206.426 155.324 208.602 148.771 212.283 142.84L212.108 142.732Z" fill="#3F3643"/>
<path d="M204.445 141.35C206.413 141.626 208.456 138.667 209.009 134.742C209.562 130.816 208.415 127.41 206.448 127.134C204.481 126.859 202.437 129.817 201.884 133.743C201.331 137.668 202.478 141.074 204.445 141.35Z" fill="#3BAF00"/>
<path d="M205.168 133.883C204.627 139.306 204.365 143.775 204.382 147.291C204.398 150.805 204.707 156.075 205.306 163.101L205.511 163.083C204.912 156.063 204.604 150.798 204.587 147.29C204.571 143.782 204.832 139.32 205.372 133.903L205.168 133.883Z" fill="#3F3643"/>
<path d="M196.623 135.673C198.23 134.508 197.64 130.963 195.304 127.756C192.969 124.549 189.773 122.894 188.165 124.059C186.558 125.224 187.149 128.768 189.484 131.975C191.82 135.182 195.016 136.838 196.623 135.673Z" fill="#3BAF00"/>
<path d="M191.425 129C198.169 136.373 202.598 147.741 204.708 163.106L204.912 163.078C202.796 147.676 198.353 136.27 191.577 128.862L191.425 129Z" fill="#3F3643"/>
<path d="M198.952 151.828C200.332 150.402 199.134 147.014 196.276 144.26C193.418 141.506 189.982 140.43 188.602 141.856C187.222 143.281 188.42 146.67 191.278 149.423C194.136 152.177 197.572 153.254 198.952 151.828Z" fill="#3BAF00"/>
<path d="M193.149 146.089C198.894 151.038 202.618 156.733 204.324 163.177L204.523 163.124C202.806 156.639 199.058 150.909 193.284 145.934L193.149 146.089Z" fill="#3F3643"/>
<path fill-rule="evenodd" clip-rule="evenodd" d="M201.796 161.597H207.587C208.448 164.269 209.145 166.253 209.678 167.549C210.478 169.493 211.072 170.437 211.689 171.863C212.306 173.29 213.429 176.056 213.429 179.866C213.429 182.407 213.304 185.532 213.054 189.242H196.329C196.079 185.532 195.954 182.407 195.954 179.866C195.954 176.056 197.077 173.29 197.694 171.863C198.311 170.437 198.905 169.493 199.705 167.549C200.238 166.253 200.935 164.269 201.796 161.597Z" fill="white"/>
<path d="M206.529 165.152L206.55 165.156C207.586 165.224 208.264 164.989 208.567 164.436L208.387 164.337C208.131 164.804 207.532 165.013 206.574 164.952C205.487 164.654 204.594 164.713 203.901 165.133L203.883 165.147C202.846 166.132 203.106 167.334 204.623 168.705C205.57 169.524 206.135 170.573 206.319 171.857C206.241 173.45 206.774 174.648 207.917 175.416C209.526 176.142 210.339 177.229 210.388 178.695C210.615 181.687 211.618 183.403 213.406 183.821L213.452 183.621C211.77 183.228 210.814 181.592 210.593 178.684C210.542 177.14 209.678 175.986 208.017 175.238C206.952 174.52 206.45 173.392 206.524 171.847C206.331 170.496 205.743 169.402 204.759 168.551C203.326 167.257 203.092 166.189 204.017 165.303C204.658 164.919 205.493 164.867 206.529 165.152Z" fill="#A2A7F7"/>
<path d="M205.824 167.244C208.6 169.381 210.636 171.189 211.934 172.666L212.088 172.531C210.781 171.042 208.735 169.226 205.95 167.081L205.824 167.244Z" fill="#A2A7F7"/>
<path d="M200.665 171.187C199.882 171.581 199.29 172.534 198.895 174.028C198.346 175.229 197.514 175.852 196.395 175.896L196.403 176.101C197.605 176.054 198.503 175.381 199.088 174.096C199.475 172.637 200.037 171.733 200.773 171.361C202.086 170.397 202.314 169.457 201.428 168.589L201.412 168.576C200.717 168.134 199.992 168.101 199.249 168.476L199.342 168.659C200.017 168.318 200.662 168.346 201.292 168.743C202.065 169.507 201.869 170.302 200.665 171.187Z" fill="#A2A7F7"/>
<path d="M200.401 169.578C199.305 170.211 198.461 170.787 197.868 171.308L198.004 171.462C198.586 170.951 199.419 170.382 200.504 169.755L200.401 169.578Z" fill="#A2A7F7"/>
<path d="M204.794 189.235C204.73 188.246 204.945 187.436 205.437 186.799C206.886 185.186 207.064 183.273 205.969 181.09C205.181 179.895 205.151 178.546 205.878 177.018C206.612 175.025 206.204 173.674 204.656 173.004C203.052 172.615 202.001 173.282 201.523 174.969C201.127 175.925 200.588 176.664 199.91 177.176C198.906 177.998 198.321 178.694 198.152 179.276C197.931 180.036 197.899 180.491 197.936 181.721C197.955 182.364 197.331 183.223 196.052 184.282L196.184 184.44C197.508 183.344 198.163 182.441 198.141 181.714C198.105 180.504 198.136 180.068 198.349 179.333C198.504 178.801 199.066 178.132 200.037 177.337C200.743 176.804 201.304 176.035 201.717 175.036C202.17 173.44 203.114 172.841 204.591 173.197C206.012 173.815 206.384 175.048 205.689 176.939C204.936 178.52 204.968 179.945 205.791 181.192C206.844 183.292 206.674 185.114 205.279 186.668C204.75 187.352 204.522 188.212 204.589 189.248L204.794 189.235Z" fill="#A2A7F7"/>
<path d="M203.736 175.758C201.981 182.364 200.654 186.847 199.758 189.205L199.95 189.278C200.85 186.911 202.178 182.423 203.935 175.81L203.736 175.758Z" fill="#A2A7F7"/>
<path fill-rule="evenodd" clip-rule="evenodd" d="M245.986 143.584C247.281 143.301 248.711 143.322 250.03 143.346C257.104 143.442 264.05 146.796 268.571 152.155C272.42 156.717 273.479 162.389 274.239 168.123C274.314 168.692 274.347 169.258 274.389 169.828C274.398 169.95 274.412 170.06 274.426 170.162C274.725 170.43 274.882 170.742 274.705 171.085C275.364 172.529 275.921 174.009 276.399 175.535C277.807 180.029 279.238 184.608 278.356 189.333C278.15 186.733 277.717 184.074 277.199 181.516C277.169 181.37 277.137 181.224 277.103 181.079C277.1 181.063 277.097 181.048 277.093 181.033C276.91 180.25 276.671 179.49 276.381 178.742C276.378 178.734 276.375 178.726 276.372 178.718C276.334 178.619 276.293 178.522 276.253 178.424C276.17 178.221 276.085 178.019 275.994 177.817C275.963 177.749 275.934 177.68 275.906 177.61C275.484 176.574 275.305 175.406 274.927 174.334C274.837 174.09 274.742 173.847 274.643 173.605C274.637 173.591 274.631 173.577 274.625 173.563C274.357 172.913 274.061 172.271 273.748 171.635C273.578 171.507 273.487 171.19 273.341 170.901C273.31 170.844 273.073 170.465 273.002 170.246C272.818 169.889 272.635 169.532 272.449 169.176C272.455 169.178 272.46 169.18 272.466 169.182C272.28 168.84 272.094 168.499 271.909 168.16C271.868 168.085 271.827 168.01 271.786 167.936C271.72 167.817 271.653 167.698 271.587 167.579C270.967 166.469 270.31 165.38 269.628 164.306C269.385 163.922 268.803 163.372 268.691 162.942C268.687 162.926 268.686 162.911 268.684 162.895C267.203 160.813 265.499 158.892 263.455 157.371C263.702 157.638 264.227 158.546 264.366 158.725C264.791 159.275 265.252 159.788 265.715 160.306C266.544 161.235 267.354 162.193 268.073 163.206C269.389 165.059 270.524 167.009 271.597 168.998C271.607 169.01 271.618 169.021 271.628 169.033C272.167 169.698 272.507 170.704 272.895 171.466C271.359 170.753 269.66 170.289 268.083 169.657C266.511 169.026 264.982 168.323 263.505 167.499C261.542 166.403 259.507 165.165 257.652 163.764C255.527 162.444 253.742 160.628 252.165 158.721C250.301 156.465 248.591 154.19 247.534 151.451C247.015 150.105 246.607 148.702 246.365 147.282C246.354 147.22 246.34 147.153 246.326 147.083C246.078 146.593 245.857 146.091 245.671 145.578C245.375 144.765 244.678 143.87 245.986 143.584Z" fill="#5ED300"/>
<path fill-rule="evenodd" clip-rule="evenodd" d="M263.342 172.697C263.062 172.494 262.399 172.423 262.091 172.362C260.809 172.11 259.489 172 258.183 172C254.154 172.006 250.059 172.401 246.097 173.084C243.582 173.517 240.541 174.976 238.038 174.184C233.679 172.803 229.273 172.871 225.137 174.842C221.355 176.644 218.485 180.068 216.809 183.766C216.557 184.325 215.531 186.38 215.241 187.765C215.117 188.048 214.998 188.334 214.89 188.623C214.585 189.445 214.311 190.281 214.057 191.119C213.949 191.476 213.675 192.266 214 192.418C213.482 193.373 213.022 194.356 212.639 195.372C211.527 198.325 210.31 201.565 209.919 204.695C209.774 205.854 209.768 207.02 209.903 208.181C209.969 208.755 209.942 209.909 210.332 210.345C211.16 211.272 211.585 209.975 211.491 209.358C210.779 204.651 212.155 200.232 213.785 195.808C214.84 192.947 216.572 190.33 218.513 187.96C220.083 186.041 221.768 184.531 223.921 183.259C226.554 181.703 229.369 180.446 232.158 179.184C233.993 178.354 235.829 177.547 237.715 176.832C238.134 176.673 238.794 176.265 239.258 176.263C240.242 176.26 241.635 176.984 242.584 177.253C245.708 178.139 248.871 179.273 252.099 179.726C254.17 180.016 256.109 179.689 258.046 179.001C258.244 178.931 258.575 178.75 258.982 178.492C260.419 177.94 261.779 177.246 262.964 176.244C263.646 175.667 264.265 174.921 264.829 174.238C264.998 174.034 265.073 173.8 265.076 173.577C265.204 173.51 265.288 173.433 265.308 173.342C265.448 172.67 264.164 172.657 263.342 172.697Z" fill="#5ED300"/>
</g>
<defs>
<clipPath id="clip0_1032_0">
<rect width="296" height="210" fill="white"/>
</clipPath>
</defs>
</svg>
