<svg width="32" height="33" viewBox="0 0 32 33" fill="none" xmlns="http://www.w3.org/2000/svg">
<path opacity="0.25" d="M17.5628 21.1299C17.7819 19.53 19.0301 18.2819 20.63 18.0628C21.5476 17.9371 22.5443 17.8333 23.3334 17.8333C24.1225 17.8333 25.1192 17.9371 26.0368 18.0628C27.6367 18.2819 28.8848 19.53 29.1039 21.1299C29.2296 22.0475 29.3334 23.0442 29.3334 23.8333C29.3334 24.6224 29.2296 25.6191 29.1039 26.5367C28.8848 28.1366 27.6367 29.3847 26.0368 29.6039C25.1192 29.7295 24.1225 29.8333 23.3334 29.8333C22.5443 29.8333 21.5476 29.7295 20.63 29.6039C19.0301 29.3847 17.7819 28.1366 17.5628 26.5367C17.4372 25.6191 17.3334 24.6224 17.3334 23.8333C17.3334 23.0442 17.4372 22.0475 17.5628 21.1299Z" fill="#B5B5C3"/>
<path opacity="0.25" d="M2.89608 21.1299C3.11519 19.53 4.36334 18.2819 5.96321 18.0628C6.88082 17.9371 7.87751 17.8333 8.66663 17.8333C9.45574 17.8333 10.4524 17.9371 11.37 18.0628C12.9699 18.2819 14.2181 19.53 14.4372 21.1299C14.5628 22.0475 14.6666 23.0442 14.6666 23.8333C14.6666 24.6224 14.5628 25.6191 14.4372 26.5367C14.2181 28.1366 12.9699 29.3847 11.37 29.6039C10.4524 29.7295 9.45574 29.8333 8.66663 29.8333C7.87751 29.8333 6.88082 29.7295 5.96321 29.6039C4.36334 29.3847 3.11519 28.1366 2.89608 26.5367C2.77041 25.6191 2.66663 24.6224 2.66663 23.8333C2.66663 23.0442 2.77041 22.0475 2.89608 21.1299Z" fill="#B5B5C3"/>
<path opacity="0.25" d="M17.5628 6.46327C17.7819 4.8634 19.0301 3.61525 20.63 3.39614C21.5476 3.27047 22.5443 3.16669 23.3334 3.16669C24.1225 3.16669 25.1192 3.27047 26.0368 3.39614C27.6367 3.61525 28.8848 4.8634 29.1039 6.46327C29.2296 7.38088 29.3334 8.37757 29.3334 9.16669C29.3334 9.95581 29.2296 10.9525 29.1039 11.8701C28.8848 13.47 27.6367 14.7181 26.0368 14.9372C25.1192 15.0629 24.1225 15.1667 23.3334 15.1667C22.5443 15.1667 21.5476 15.0629 20.63 14.9372C19.0301 14.7181 17.7819 13.47 17.5628 11.8701C17.4372 10.9525 17.3334 9.95581 17.3334 9.16669C17.3334 8.37757 17.4372 7.38088 17.5628 6.46327Z" fill="#B5B5C3"/>
<path d="M2.89608 6.46327C3.11519 4.8634 4.36334 3.61525 5.96321 3.39614C6.88082 3.27047 7.87751 3.16669 8.66663 3.16669C9.45574 3.16669 10.4524 3.27047 11.37 3.39614C12.9699 3.61525 14.2181 4.8634 14.4372 6.46327C14.5628 7.38088 14.6666 8.37757 14.6666 9.16669C14.6666 9.95581 14.5628 10.9525 14.4372 11.8701C14.2181 13.47 12.9699 14.7181 11.37 14.9372C10.4524 15.0629 9.45574 15.1667 8.66663 15.1667C7.87751 15.1667 6.88082 15.0629 5.96321 14.9372C4.36334 14.7181 3.11519 13.47 2.89608 11.8701C2.77041 10.9525 2.66663 9.95581 2.66663 9.16669C2.66663 8.37757 2.77041 7.38088 2.89608 6.46327Z" fill="#B5B5C3"/>
</svg>
