<svg width="174" height="87" viewBox="0 0 174 87" fill="none" xmlns="http://www.w3.org/2000/svg">
<path d="M72.8185 22.8738C75.4975 20.9319 74.5135 15.0244 70.6208 9.67887C66.728 4.33337 61.4005 1.57418 58.7216 3.51605C56.0426 5.45791 57.0266 11.3655 60.9193 16.711C64.8121 22.0565 70.1396 24.8157 72.8185 22.8738Z" fill="#3BAF00"/>
<path d="M64.1548 11.7515C75.3955 24.0411 82.7776 42.9895 86.2944 68.5991L86.6339 68.5527C83.1084 42.8802 75.7018 23.8688 64.4079 11.5211L64.1548 11.7515Z" fill="#3F3643"/>
<path d="M75.3302 49.8007C77.6305 47.4242 75.6332 41.7769 70.8692 37.187C66.1052 32.5971 60.3784 30.8028 58.0781 33.1793C55.7778 35.5558 57.7751 41.2031 62.5391 45.793C67.3031 50.3829 73.0299 52.1772 75.3302 49.8007Z" fill="#3BAF00"/>
<path d="M65.6582 40.2355C75.2327 48.4838 81.44 57.9769 84.2842 68.7171L84.6155 68.6298C81.753 57.8206 75.5072 48.2687 65.8821 39.9768L65.6582 40.2355Z" fill="#3F3643"/>
<path fill-rule="evenodd" clip-rule="evenodd" d="M47.4401 72.672H147.484C146.928 67.1078 139.643 51.0026 128.298 45.3262C114.702 38.5237 102.54 51.3113 100.106 54.7063C92.2346 65.6848 86.4938 62.4633 75.188 57.8648C63.8822 53.2662 54.6329 58.2019 47.4401 72.672Z" fill="#5ED300"/>
<path d="M109.054 44.9919C106.13 46.5429 101.239 43.0709 98.1301 37.2369C95.0209 31.4029 94.8706 25.4162 97.7944 23.8652C100.718 22.3142 105.609 25.7863 108.718 31.6202C111.827 37.4542 111.978 43.4409 109.054 44.9919Z" fill="#3BAF00"/>
<path d="M16.5533 66.0813C13.6296 67.6322 8.73886 64.1602 5.62965 58.3262C2.52045 52.4922 2.37014 46.5055 5.29392 44.9546C8.2177 43.4036 13.1084 46.8756 16.2176 52.7096C19.3268 58.5436 19.4771 64.5303 16.5533 66.0813Z" fill="#3BAF00"/>
<path d="M102.959 32.8479C109.122 42.7787 112.765 53.7522 113.889 65.7666L113.548 65.7983C112.429 53.8361 108.802 42.9133 102.667 33.0278L102.959 32.8479Z" fill="#3F3643"/>
<path d="M10.458 53.9374C16.6211 63.8681 20.2648 74.8417 21.3889 86.856L21.0477 86.8878C19.9286 74.9256 16.3017 64.0028 10.1667 54.1173L10.458 53.9374Z" fill="#3F3643"/>
<path d="M31.064 63.8276C28.1678 62.2259 28.4228 56.2427 31.6336 50.4638C34.8444 44.6848 39.7951 41.2984 42.6913 42.9001C45.5875 44.5018 45.3324 50.4849 42.1217 56.2639C38.9109 62.0429 33.9602 65.4292 31.064 63.8276Z" fill="#3BAF00"/>
<path d="M37.5754 51.8491C30.8364 62.5298 27.6823 73.4187 28.1098 84.5193L27.7674 84.5324C27.3371 73.3605 30.5108 62.4042 37.2854 51.667L37.5754 51.8491Z" fill="#3F3643"/>
<path fill-rule="evenodd" clip-rule="evenodd" d="M173.016 72.6154C167.652 63.39 161.378 60.9007 154.193 65.1474C143.416 71.5174 143.625 63.4927 135.693 54.668C132.039 50.6018 122.433 50.042 117.151 55.277C110.215 62.1509 105.425 67.9492 102.779 72.6719L173.016 72.6154Z" fill="#41AD00"/>
</svg>
