<svg width="36" height="37" viewBox="0 0 36 37" fill="none" xmlns="http://www.w3.org/2000/svg">
<rect y="0.5" width="36" height="36" rx="12" fill="#FFF8DD"/>
<path fill-rule="evenodd" clip-rule="evenodd" d="M18 21.1666C16.1591 21.1666 14.6667 19.6743 14.6667 17.8333H13.3334C13.3334 20.1849 15.0727 22.1302 17.335 22.453C17.3339 22.4685 17.3334 22.4842 17.3334 22.5V24.5C17.3334 24.8682 17.6319 25.1666 18 25.1666C18.3682 25.1666 18.6667 24.8682 18.6667 24.5V22.5C18.6667 22.4842 18.6662 22.4685 18.6651 22.453C20.9274 22.1302 22.6667 20.1849 22.6667 17.8333H21.3334C21.3334 19.6743 19.841 21.1666 18 21.1666Z" fill="#FFC700"/>
<rect opacity="0.3" x="16" y="11.8333" width="4" height="8" rx="2" fill="#FFC700"/>
</svg>
