<svg width="24" height="25" viewBox="0 0 24 25" fill="none" xmlns="http://www.w3.org/2000/svg">
<g clip-path="url(#clip0_91_2239)">
<path d="M22.9536 13.8728C22.764 10.7384 21.6 8.34085 19.6884 7.12285L19.6044 7.07125C18.4044 6.36685 16.578 5.81125 14.592 5.49925L16.4592 4.29925C16.5084 4.26565 16.5648 4.22485 16.6128 4.18525C16.9175 3.92937 17.1081 3.56291 17.1427 3.1665C17.1772 2.77009 17.0529 2.37619 16.797 2.07145C16.5411 1.76672 16.1747 1.57611 15.7782 1.54157C15.3818 1.50703 14.9879 1.63137 14.6832 1.88725L11.016 4.97005L6.32759 0.839652C6.30719 0.821652 6.28319 0.802452 6.26159 0.785652C6.12023 0.676209 5.95871 0.595679 5.78623 0.54866C5.61375 0.501642 5.4337 0.489055 5.25636 0.51162C4.8982 0.557191 4.57282 0.743174 4.35179 1.02865C4.24234 1.17001 4.16181 1.33153 4.1148 1.50401C4.06778 1.67649 4.05519 1.85654 4.07776 2.03388C4.12333 2.39204 4.30931 2.71742 4.59479 2.93845L7.90679 5.50525C5.88599 5.88685 3.87959 6.73285 2.62679 8.46205L2.59799 8.50285C0.857988 11.0096 0.917988 14.528 1.10759 16.4012C1.10759 16.418 1.10759 16.4348 1.11359 16.4516C1.56959 20.18 3.08999 22.58 5.63999 23.5916L5.65799 23.5988C7.16039 24.1796 9.22319 24.5 11.4648 24.5C12.84 24.5 14.904 24.38 16.9272 23.7944C19.1088 23.1644 20.6616 22.1552 21.5436 20.7944C21.5676 20.756 21.5916 20.7176 21.6144 20.6744C22.5912 18.98 23.1048 16.3724 22.9536 13.8728ZM19.32 19.3532C18.2052 21.0764 14.718 21.8504 11.4648 21.8504C9.60959 21.8504 7.83119 21.5996 6.61319 21.1304C4.73999 20.39 4.01639 18.3596 3.74759 16.136C3.52079 13.9124 3.89279 11.4956 4.91999 10.016C6.04439 8.45605 8.46479 7.87645 11.1192 7.87645C13.9272 7.87645 16.8396 8.52685 18.2688 9.36205C20.8644 11.0096 20.7684 16.8392 19.32 19.3532Z" fill="#B5B5C3"/>
<path d="M11.142 18.7041C9.8868 18.2109 8.0676 12.2973 9.102 11.5569C10.1364 10.8165 16.2012 12.5001 16.5876 13.5969C17.0592 14.9397 12.3972 19.1973 11.142 18.7041Z" fill="#B5B5C3"/>
</g>
<defs>
<clipPath id="clip0_91_2239">
<rect width="24" height="24" fill="white" transform="translate(0 0.5)"/>
</clipPath>
</defs>
</svg>
