<svg width="36" height="37" viewBox="0 0 36 37" fill="none" xmlns="http://www.w3.org/2000/svg">
<rect y="0.5" width="36" height="36" rx="12" fill="#FFF3F6"/>
<path opacity="0.3" fill-rule="evenodd" clip-rule="evenodd" d="M16.7626 18.9125L15.5252 20.1499C15.2974 20.3777 15.2974 20.747 15.5252 20.9749C15.753 21.2027 16.1223 21.2027 16.3501 20.9749L17.5876 19.7374L18 20.1499C18.4557 20.6055 18.4557 21.3442 18 21.7998L16.3501 23.4497C15.8945 23.9053 15.1558 23.9053 14.7002 23.4497L13.0503 21.7998C12.5947 21.3442 12.5947 20.6055 13.0503 20.1499L14.7002 18.5C15.1558 18.0444 15.8945 18.0444 16.3501 18.5L16.7626 18.9125Z" fill="#F1416C"/>
<path fill-rule="evenodd" clip-rule="evenodd" d="M19.2374 18.0875L20.4749 16.8501C20.7027 16.6223 20.7027 16.253 20.4749 16.0251C20.2471 15.7973 19.8777 15.7973 19.6499 16.0251L18.4125 17.2626L18 16.8501C17.5444 16.3945 17.5444 15.6558 18 15.2002L19.6499 13.5503C20.1055 13.0947 20.8442 13.0947 21.2998 13.5503L22.9498 15.2002C23.4054 15.6558 23.4054 16.3945 22.9498 16.8501L21.2998 18.5C20.8442 18.9556 20.1055 18.9556 19.6499 18.5L19.2374 18.0875Z" fill="#F1416C"/>
<path opacity="0.3" fill-rule="evenodd" clip-rule="evenodd" d="M13.4627 14.7877C13.2349 14.5599 13.2349 14.1905 13.4627 13.9627C13.6905 13.7349 14.0599 13.7349 14.2877 13.9627L15.1126 14.7877C15.3404 15.0155 15.3404 15.3848 15.1126 15.6126C14.8848 15.8404 14.5155 15.8404 14.2877 15.6126L13.4627 14.7877ZM15.8668 12.9669C15.8668 12.6447 16.128 12.3836 16.4502 12.3836C16.7723 12.3836 17.0335 12.6447 17.0335 12.9669L17.0335 14.1336C17.0335 14.4557 16.7723 14.7169 16.4502 14.7169C16.128 14.7169 15.8668 14.4557 15.8668 14.1336L15.8668 12.9669ZM11.9837 16.8501C11.9837 16.5279 12.2448 16.2667 12.567 16.2667L13.7337 16.2667C14.0558 16.2667 14.317 16.5279 14.317 16.8501C14.317 17.1722 14.0558 17.4334 13.7337 17.4334L12.567 17.4334C12.2448 17.4334 11.9837 17.1722 11.9837 16.8501Z" fill="#F1416C"/>
<path opacity="0.3" fill-rule="evenodd" clip-rule="evenodd" d="M21.6415 22.9665C21.8693 23.1943 22.2387 23.1943 22.4665 22.9665C22.6943 22.7387 22.6943 22.3693 22.4665 22.1415L21.6415 21.3166C21.4137 21.0888 21.0444 21.0888 20.8166 21.3166C20.5888 21.5444 20.5888 21.9137 20.8166 22.1415L21.6415 22.9665ZM23.4623 20.5624C23.7845 20.5624 24.0456 20.3012 24.0456 19.9791C24.0456 19.6569 23.7845 19.3957 23.4623 19.3957L22.2956 19.3957C21.9735 19.3957 21.7123 19.6569 21.7123 19.9791C21.7123 20.3012 21.9735 20.5624 22.2956 20.5624H23.4623ZM19.5791 24.4455C19.9013 24.4455 20.1625 24.1844 20.1625 23.8622L20.1625 22.6955C20.1625 22.3734 19.9013 22.1122 19.5791 22.1122C19.257 22.1122 18.9958 22.3734 18.9958 22.6955L18.9958 23.8622C18.9958 24.1844 19.257 24.4455 19.5791 24.4455Z" fill="#F1416C"/>
</svg>
