<svg width="24" height="25" viewBox="0 0 24 25" fill="none" xmlns="http://www.w3.org/2000/svg">
<g clip-path="url(#clip0_91_2261)">
<path d="M7.75919 21.5684V8.6084L8.99279 7.1684V21.062C9.74315 20.6292 10.3662 20.0064 10.7994 19.2562C11.2325 18.506 11.4603 17.655 11.46 16.7888V0.5L5.29199 7.7V21.728H6.52559C6.94189 21.7272 7.3564 21.6736 7.75919 21.5684V21.5684Z" fill="#B5B5C3"/>
<path d="M18.8628 22.9579V12.3235L12.6936 5.12354V16.7863C12.692 18.4218 12.0417 19.9899 10.8853 21.1464C9.729 22.303 8.16107 22.9536 6.52559 22.9555H2.51999V24.4999H15.162V11.7967L16.3956 13.2367V24.4999H21.48V22.9579H18.8628Z" fill="#B5B5C3"/>
</g>
<defs>
<clipPath id="clip0_91_2261">
<rect width="24" height="24" fill="white" transform="translate(0 0.5)"/>
</clipPath>
</defs>
</svg>
