<svg width="66" height="64" viewBox="0 0 66 64" fill="none" xmlns="http://www.w3.org/2000/svg">
<rect y="0.75" width="66" height="63" rx="12" fill="#E7F6FF"/>
<path fill-rule="evenodd" clip-rule="evenodd" d="M42.2991 37.7723C42.618 38.0767 43.146 37.8496 43.1444 37.4088L43.1304 33.6711V27.3553C43.1304 26.1926 42.143 25.25 40.9249 25.25H30.6325C29.4144 25.25 28.427 26.1926 28.427 27.3553V30.25H34.0159C35.6727 30.25 37.0159 31.5931 37.0159 33.25V35.7763H40.2081L42.2991 37.7723Z" fill="#00A3FF"/>
<path opacity="0.3" fill-rule="evenodd" clip-rule="evenodd" d="M24.7806 37.75V33.5833C24.7806 32.6628 25.5624 31.9167 26.5267 31.9167H33.5108C34.4751 31.9167 35.2568 32.6628 35.2568 33.5833V37.75C35.2568 38.6705 34.4751 39.4167 33.5108 39.4167H26.6277L25.6407 40.3184C25.3198 40.6116 24.8035 40.3839 24.8035 39.9493V38.0202C24.7884 37.9323 24.7806 37.842 24.7806 37.75ZM28.2857 34.8333C28.2857 34.6032 28.4723 34.4167 28.7024 34.4167H33.1071C33.3373 34.4167 33.5238 34.6032 33.5238 34.8333C33.5238 35.0634 33.3373 35.25 33.1071 35.25H28.7024C28.4723 35.25 28.2857 35.0634 28.2857 34.8333ZM31.3214 36.0833C31.0913 36.0833 30.9048 36.2699 30.9048 36.5C30.9048 36.7301 31.0913 36.9167 31.3214 36.9167H33.1071C33.3373 36.9167 33.5238 36.7301 33.5238 36.5C33.5238 36.2699 33.3373 36.0833 33.1071 36.0833H31.3214Z" fill="#00A3FF"/>
</svg>
