<svg width="36" height="37" viewBox="0 0 36 37" fill="none" xmlns="http://www.w3.org/2000/svg">
<rect y="0.5" width="36" height="36" rx="12" fill="#E4FFF4"/>
<path fill-rule="evenodd" clip-rule="evenodd" d="M24.4921 22.3088C24.8077 22.6244 25.3473 22.3998 25.3457 21.9535L25.336 19.2368V14.1842C25.336 13.254 24.5819 12.5 23.6518 12.5H15.7921C14.862 12.5 14.1079 13.254 14.1079 14.1842V16.5H17.6667C19.3235 16.5 20.6667 17.8431 20.6667 19.5V20.9211H23.1044L24.4921 22.3088Z" fill="#20D489"/>
<path opacity="0.3" fill-rule="evenodd" clip-rule="evenodd" d="M11.3234 22.5V19.1666C11.3234 18.4303 11.9203 17.8333 12.6567 17.8333H17.99C18.7264 17.8333 19.3234 18.4303 19.3234 19.1666V22.5C19.3234 23.2364 18.7264 23.8333 17.99 23.8333H12.7339L12.1865 24.3572C11.8685 24.6615 11.3408 24.4362 11.3408 23.996V22.7162C11.3293 22.6458 11.3234 22.5736 11.3234 22.5ZM14 20.1666C14 19.9826 14.1492 19.8333 14.3333 19.8333H17.6667C17.8508 19.8333 18 19.9826 18 20.1666C18 20.3507 17.8508 20.5 17.6667 20.5H14.3333C14.1492 20.5 14 20.3507 14 20.1666ZM16.3333 21.1666C16.1492 21.1666 16 21.3159 16 21.5C16 21.6841 16.1492 21.8333 16.3333 21.8333H17.6667C17.8508 21.8333 18 21.6841 18 21.5C18 21.3159 17.8508 21.1666 17.6667 21.1666H16.3333Z" fill="#20D489"/>
</svg>
