<svg width="24" height="25" viewBox="0 0 24 25" fill="none" xmlns="http://www.w3.org/2000/svg">
<g clip-path="url(#clip0_91_2271)">
<path d="M24 8.03601V11.5316C24 18.6932 18.6276 24.5 12 24.5C5.3724 24.5 0 18.6932 0 11.5316V8.03601L12.5256 20.9888L24 8.03601Z" fill="url(#paint0_linear_91_2271)"/>
<path d="M0.5256 8.02039C0.3744 8.02039 0.2244 8.02039 0.0756 8.03239C0.0255227 8.47302 0.000282808 8.91612 0 9.35959C0 15.9596 5.3724 21.314 12 21.314C12.1512 21.314 12.3 21.314 12.45 21.3032C12.4995 20.8625 12.5247 20.4194 12.5256 19.976C12.5256 13.3736 7.1532 8.02039 0.5256 8.02039Z" fill="url(#paint1_linear_91_2271)"/>
<path d="M23.9256 8.03599C17.5764 8.34799 12.5256 13.574 12.5256 19.976C12.5256 20.0876 12.5256 20.1992 12.5256 20.3108C12.5256 20.1992 12.5256 20.0876 12.5256 19.976C12.5256 20.2004 12.5184 20.4236 12.5052 20.6444C12.5184 20.4236 12.5256 20.2004 12.5256 19.976C12.5256 13.376 7.1532 8.02039 0.5256 8.02039C0.3744 8.02039 0.2244 8.02039 0.0756 8.03239C0.0255227 8.47302 0.000282808 8.91612 0 9.35959C0 15.9596 5.3724 21.314 12 21.314C12.1512 21.314 12.3 21.314 12.45 21.3032C12.5004 21.3032 12.5508 21.3032 12.6 21.3032C18.9492 20.9912 24 15.7652 24 9.36319C23.9996 8.91975 23.9748 8.47668 23.9256 8.03599V8.03599Z" fill="url(#paint2_linear_91_2271)"/>
<path d="M12 9.14C14.3859 9.14 16.32 7.20587 16.32 4.82C16.32 2.43413 14.3859 0.5 12 0.5C9.61415 0.5 7.68002 2.43413 7.68002 4.82C7.68002 7.20587 9.61415 9.14 12 9.14Z" fill="#6F4A9E"/>
</g>
<defs>
<linearGradient id="paint0_linear_91_2271" x1="12" y1="25.6304" x2="12" y2="17.7404" gradientUnits="userSpaceOnUse">
<stop stop-color="#FF8A11"/>
<stop offset="1" stop-color="#E81894"/>
</linearGradient>
<linearGradient id="paint1_linear_91_2271" x1="13.7652" y1="23.4548" x2="3.942" y2="11.9504" gradientUnits="userSpaceOnUse">
<stop stop-color="#B03B83"/>
<stop offset="1" stop-color="#6F4A9E"/>
</linearGradient>
<linearGradient id="paint2_linear_91_2271" x1="2400" y1="2049.39" x2="2400" y2="1089.45" gradientUnits="userSpaceOnUse">
<stop stop-color="#FF8A11"/>
<stop offset="1" stop-color="#E81894"/>
</linearGradient>
<clipPath id="clip0_91_2271">
<rect width="24" height="24" fill="white" transform="translate(0 0.5)"/>
</clipPath>
</defs>
</svg>
