<svg width="24" height="24" viewBox="0 0 24 24" fill="none" xmlns="http://www.w3.org/2000/svg">
<g clip-path="url(#clip0_11_32)">
<path d="M3.36001 10.1856C3.25315 10.1413 3.14276 10.1059 3.03001 10.08C2.81041 10.0284 2.59081 9.9744 2.36881 9.9288C2.14681 9.8832 1.92721 9.84 1.70401 9.8016C1.48081 9.7632 1.26001 9.7308 1.03561 9.708C0.931539 9.69368 0.826041 9.72129 0.742325 9.78475C0.658609 9.84821 0.603532 9.94233 0.58921 10.0464C0.574888 10.1505 0.602495 10.256 0.665958 10.3397C0.72942 10.4234 0.823539 10.4785 0.92761 10.4928C1.14841 10.5312 1.37281 10.56 1.59721 10.584C1.82161 10.608 2.04481 10.6272 2.27041 10.6404C2.49601 10.6536 2.72281 10.6644 2.94841 10.6752C3.06254 10.6814 3.17699 10.6773 3.29041 10.6632C3.41105 10.6521 3.52968 10.6251 3.64321 10.5828C3.66601 10.574 3.68594 10.559 3.70081 10.5396C3.721 10.5119 3.72954 10.4775 3.72461 10.4436C3.71967 10.4097 3.70165 10.3791 3.67441 10.3584C3.57748 10.2875 3.47181 10.2294 3.36001 10.1856V10.1856Z" fill="#7111EE"/>
<path d="M5.52 6.162C5.5396 6.1441 5.55135 6.1192 5.5527 6.09268C5.55405 6.06617 5.54489 6.0402 5.5272 6.0204C5.33387 5.81039 5.12444 5.61579 4.9008 5.4384C4.6808 5.2624 4.4592 5.0896 4.236 4.92C4.0128 4.7472 3.786 4.5828 3.5592 4.416C3.3324 4.2492 3.1044 4.0896 2.8728 3.936L2.8416 3.9168C2.78883 3.88553 2.73035 3.86507 2.66959 3.85663C2.60883 3.8482 2.547 3.85194 2.4877 3.86766C2.4284 3.88337 2.37283 3.91073 2.32422 3.94815C2.27561 3.98557 2.23494 4.0323 2.20458 4.08561C2.17422 4.13891 2.15479 4.19773 2.1474 4.25863C2.14002 4.31953 2.14484 4.38129 2.16157 4.4403C2.17831 4.49932 2.20664 4.55441 2.24489 4.60237C2.28315 4.65032 2.33058 4.69017 2.3844 4.7196C2.6244 4.8588 2.8716 4.9956 3.1212 5.124C3.3708 5.2524 3.618 5.3856 3.87 5.5104C4.122 5.6352 4.3728 5.76 4.6284 5.88C4.88582 6.00248 5.15219 6.10518 5.4252 6.1872C5.44186 6.19099 5.45919 6.19067 5.4757 6.18628C5.49221 6.18189 5.50741 6.17356 5.52 6.162Z" fill="#7111EE"/>
<path d="M8.12759 1.97025C8.25599 2.18265 8.39039 2.39145 8.52599 2.60025C8.67035 2.81428 8.8445 3.00661 9.04319 3.17145C9.06827 3.19072 9.09916 3.20088 9.13079 3.20025C9.14844 3.19978 9.16583 3.19584 9.18196 3.18866C9.19808 3.18147 9.21264 3.17117 9.22478 3.15835C9.23693 3.14554 9.24643 3.13045 9.25275 3.11396C9.25906 3.09748 9.26207 3.0799 9.26159 3.06225C9.25141 2.80431 9.20371 2.54924 9.11999 2.30505C9.03599 2.07105 8.94959 1.83705 8.85719 1.60665C8.67826 1.14492 8.47395 0.693432 8.24519 0.254251C8.18724 0.150423 8.0915 0.0729335 7.97788 0.0379022C7.86425 0.00287085 7.7415 0.0129956 7.63515 0.0661701C7.5288 0.119345 7.44705 0.211474 7.4069 0.323392C7.36675 0.435311 7.37129 0.558399 7.41959 0.667051C7.63142 1.11415 7.86778 1.54921 8.12759 1.97025V1.97025Z" fill="#7111EE"/>
<path d="M14.5344 3.1716C14.7016 2.98022 14.8582 2.77992 15.0036 2.5716C15.1488 2.3676 15.2856 2.1588 15.4188 1.9488C15.552 1.7388 15.6804 1.5276 15.8064 1.314C15.9324 1.1004 16.0465 0.883204 16.1665 0.662404C16.2212 0.552763 16.2301 0.425868 16.1913 0.309633C16.1525 0.193398 16.0691 0.0973445 15.9594 0.0426038C15.8498 -0.0121369 15.7229 -0.021081 15.6067 0.017739C15.4904 0.0565591 15.3944 0.139963 15.3396 0.249604C15.2292 0.471604 15.1308 0.698404 15.0336 0.926404C14.9364 1.1544 14.8476 1.386 14.7612 1.6188C14.6748 1.8516 14.5884 2.0856 14.514 2.3244C14.4368 2.56515 14.3727 2.80991 14.322 3.0576C14.3168 3.07931 14.3178 3.10204 14.3248 3.12324C14.3318 3.14444 14.3445 3.16326 14.3616 3.1776C14.3732 3.18884 14.387 3.19762 14.402 3.20342C14.4171 3.20922 14.4332 3.21192 14.4493 3.21136C14.4655 3.2108 14.4813 3.20699 14.4959 3.20016C14.5106 3.19333 14.5237 3.18361 14.5344 3.1716V3.1716Z" fill="#7111EE"/>
<path d="M20.8572 4.56961C20.9039 4.53076 20.9424 4.48311 20.9706 4.42937C20.9988 4.37563 21.0162 4.31686 21.0217 4.25641C21.0272 4.19596 21.0208 4.13501 21.0028 4.07705C20.9847 4.01909 20.9554 3.96525 20.9166 3.91861C20.8778 3.87196 20.8301 3.83342 20.7764 3.80519C20.7226 3.77696 20.6639 3.75959 20.6034 3.75408C20.543 3.74856 20.482 3.75501 20.4241 3.77305C20.3661 3.79108 20.3123 3.82036 20.2656 3.85921C20.0688 4.02361 19.8732 4.19281 19.6812 4.36441C19.4892 4.53601 19.2996 4.71241 19.1112 4.89001C18.9228 5.06761 18.7356 5.25001 18.552 5.42761C18.3638 5.61273 18.1916 5.81344 18.0372 6.02761C18.0279 6.04113 18.022 6.05668 18.0199 6.07295C18.0178 6.08923 18.0196 6.10577 18.0252 6.12121C18.0347 6.14618 18.0535 6.16645 18.0778 6.17767C18.102 6.18889 18.1296 6.19016 18.1548 6.18121C18.4011 6.08822 18.6392 5.97462 18.8664 5.84161C19.0896 5.71081 19.3116 5.57641 19.5312 5.44081C19.7508 5.30521 19.9704 5.16721 20.1864 5.02681C20.4024 4.88641 20.616 4.74241 20.8272 4.59481L20.8572 4.56961Z" fill="#7111EE"/>
<path d="M23.3784 9.70201C23.3616 9.65275 23.3353 9.60727 23.301 9.56819C23.2666 9.5291 23.2249 9.49716 23.1782 9.47421C23.1315 9.45125 23.0808 9.43772 23.0288 9.43439C22.9769 9.43106 22.9248 9.438 22.8756 9.45481C22.65 9.53281 22.428 9.62041 22.2072 9.71281C21.9864 9.80521 21.768 9.90001 21.5508 10.0008C21.3336 10.1016 21.1176 10.206 20.9016 10.3104C20.7922 10.3624 20.687 10.423 20.5872 10.4916C20.4815 10.5597 20.3844 10.6402 20.298 10.7316C20.2784 10.7517 20.2665 10.778 20.2644 10.806C20.2624 10.8234 20.264 10.841 20.269 10.8578C20.274 10.8746 20.2824 10.8902 20.2936 10.9037C20.3048 10.9171 20.3186 10.9282 20.3342 10.9361C20.3498 10.9441 20.3669 10.9488 20.3844 10.95C20.5107 10.962 20.638 10.9587 20.7636 10.9404C20.8853 10.9246 21.0056 10.8998 21.1236 10.866C21.354 10.8 21.5856 10.7364 21.8136 10.6656C22.0416 10.5948 22.2696 10.5216 22.4952 10.4436C22.7208 10.3656 22.9368 10.2876 23.16 10.2C23.2531 10.1606 23.3276 10.087 23.3682 9.99442C23.4088 9.90183 23.4124 9.79721 23.3784 9.70201V9.70201Z" fill="#7111EE"/>
<path d="M16.0632 5.47321C15.7404 5.26396 15.4013 5.08097 15.0492 4.92601C14.6985 4.77619 14.3376 4.65148 13.9692 4.55281C13.6028 4.45966 13.2309 4.38992 12.8556 4.34401C12.6696 4.32721 12.4824 4.30321 12.2964 4.29841L12.0168 4.28641H11.7264C10.9565 4.30764 10.1946 4.44853 9.46801 4.70401C8.73692 4.9619 8.05214 5.33589 7.44001 5.81161C6.82329 6.29369 6.30196 6.88664 5.90281 7.56001C5.70653 7.89738 5.5426 8.25256 5.41321 8.62081C5.29007 8.98678 5.19814 9.36252 5.13841 9.74401C5.02379 10.4963 5.03108 11.2621 5.16001 12.012C5.29661 12.7568 5.56871 13.4702 5.96281 14.1168C6.34646 14.7454 6.83327 15.3048 7.40281 15.7716C7.96212 16.234 8.5987 16.5939 9.28321 16.8348C9.92578 17.0485 10.6074 17.1185 11.28 17.04C11.5748 17.0134 11.866 16.9559 12.1488 16.8684C12.6921 16.6803 13.1969 16.3957 13.6392 16.0284C14.0856 15.6629 14.4719 15.2296 14.784 14.7444C15.1087 14.2462 15.3318 13.6887 15.4404 13.104C15.4952 12.7992 15.5073 12.4882 15.4764 12.18C15.4451 11.8648 15.3641 11.5566 15.2364 11.2668C15.1073 10.9789 14.9358 10.7119 14.7276 10.4748C14.5032 10.2126 14.2181 10.0091 13.8972 9.88201C13.563 9.7569 13.1989 9.73475 12.852 9.81841C12.5832 9.88516 12.3281 9.99847 12.0984 10.1532C11.9138 9.94116 11.6967 9.75971 11.4552 9.61561C11.3121 9.53291 11.1582 9.47032 10.998 9.42961C10.8413 9.38748 10.6802 9.36412 10.518 9.36001C10.1907 9.34825 9.86579 9.41968 9.57361 9.56761C9.27681 9.71687 9.02933 9.94851 8.86081 10.2348C8.69536 10.5171 8.61223 10.8401 8.62081 11.1672C8.63025 11.4763 8.70424 11.78 8.83801 12.0588C8.96966 12.3274 9.14711 12.5711 9.36241 12.7788C9.56592 12.9726 9.78551 13.1489 10.0188 13.3056C10.2444 13.4604 10.4736 13.602 10.6848 13.758C10.8992 13.9042 11.0834 14.0904 11.2272 14.3064C11.2942 14.417 11.3401 14.5391 11.3628 14.6664C11.3808 14.799 11.3808 14.9334 11.3628 15.066C11.4046 14.9349 11.4261 14.7981 11.4264 14.6604C11.4234 14.5186 11.3941 14.3787 11.34 14.2476C11.2211 13.9903 11.0494 13.7609 10.836 13.5744C10.4352 13.1916 9.99601 12.8772 9.67081 12.4944C9.51173 12.309 9.38661 12.0969 9.30121 11.868C9.22069 11.6493 9.1836 11.4169 9.19201 11.184C9.20454 10.9611 9.27664 10.7456 9.40081 10.56C9.51941 10.3856 9.68271 10.2464 9.87361 10.1568C10.0693 10.0683 10.2831 10.0271 10.4976 10.0368C10.7125 10.0459 10.9224 10.1046 11.1108 10.2084C11.2819 10.3139 11.4385 10.4414 11.5764 10.5876C11.4907 10.6787 11.4105 10.7749 11.3364 10.8756C11.1461 11.1253 11.0025 11.4075 10.9128 11.7084C10.8622 11.8812 10.8475 12.0625 10.8696 12.2412C10.8844 12.3462 10.9186 12.4475 10.9704 12.54C11.026 12.6345 11.1008 12.7162 11.19 12.78C11.3465 12.896 11.5332 12.9643 11.7276 12.9768C11.9293 12.9853 12.1282 12.9275 12.294 12.8124C12.4435 12.7071 12.5667 12.5687 12.654 12.408C12.7378 12.2559 12.7924 12.0894 12.8148 11.9172C12.8374 11.7468 12.8296 11.5737 12.792 11.406C12.7565 11.2527 12.7063 11.1032 12.642 10.9596C12.6156 10.902 12.5868 10.8396 12.5568 10.7892C12.7026 10.7151 12.8594 10.6648 13.0212 10.6404C13.2061 10.6125 13.3951 10.6379 13.566 10.7136C13.7441 10.7967 13.9006 10.92 14.0232 11.0736C14.1673 11.2455 14.2883 11.4355 14.3832 11.6388C14.5739 12.0548 14.6486 12.5146 14.5992 12.9696C14.539 13.455 14.388 13.9248 14.154 14.3544C13.272 16.0572 11.2896 17.004 9.55321 16.1616C8.99175 15.8826 8.48524 15.5045 8.05801 15.0456C7.63661 14.5972 7.28762 14.0859 7.02361 13.53C6.77308 12.99 6.62265 12.409 6.57961 11.8152C6.55124 11.2307 6.61358 10.6454 6.76441 10.08C6.91406 9.52704 7.14887 9.00074 7.46041 8.52001C7.7656 8.04305 8.14567 7.6184 8.58601 7.26241C9.03662 6.90475 9.54135 6.62119 10.0812 6.42241C10.6257 6.22602 11.1972 6.11511 11.7756 6.09361H11.9916L12.216 6.09961C12.366 6.09961 12.5136 6.11761 12.6636 6.12601C12.9575 6.15675 13.2492 6.20524 13.5372 6.27121C14.6819 6.522 15.7041 7.1625 16.429 8.08329C17.1539 9.00407 17.5365 10.148 17.5116 11.3196C17.4967 12.5231 17.102 13.6911 16.3836 14.6568C16.0216 15.1449 15.5967 15.5831 15.12 15.96C14.8777 16.1537 14.6249 16.334 14.3628 16.5C14.0999 16.666 13.8279 16.8171 13.548 16.9524C12.9521 17.2174 12.341 17.447 11.718 17.64C11.0784 17.856 10.4196 18.06 9.76321 18.3972C9.39998 18.5688 9.07635 18.814 8.81281 19.1172C8.66086 19.2997 8.55544 19.5163 8.50561 19.7484C8.47619 19.8824 8.47171 20.0208 8.49241 20.1564C8.5162 20.3001 8.57108 20.4369 8.65321 20.5572C8.74326 20.6835 8.85499 20.7928 8.98321 20.88C8.91155 21.0476 8.87834 21.2291 8.88602 21.4112C8.89371 21.5934 8.94209 21.7714 9.02761 21.9324C9.12164 22.1085 9.24045 22.2701 9.38041 22.4124C9.44667 22.4823 9.51721 22.548 9.59161 22.6092C9.64441 22.6512 9.70081 22.6884 9.75721 22.7292C9.70241 22.8043 9.65537 22.8847 9.61681 22.9692C9.53244 23.1503 9.51213 23.3547 9.55921 23.5488C9.58607 23.6388 9.62654 23.7242 9.67921 23.802C9.72871 23.875 9.78717 23.9415 9.85321 24C9.77999 23.8547 9.74451 23.6934 9.75001 23.5308C9.76146 23.3875 9.81867 23.2516 9.91321 23.1432C9.97572 23.0669 10.0484 22.9994 10.1292 22.9428C10.3549 23.0565 10.5913 23.1477 10.8348 23.2152C11.1814 23.3102 11.5369 23.3694 11.8956 23.3916C12.259 23.4183 12.6243 23.4026 12.984 23.3448C13.0764 23.328 13.17 23.3076 13.2684 23.28C13.3785 23.2492 13.4844 23.2053 13.584 23.1492C13.6662 23.103 13.7377 23.0401 13.794 22.9644C13.8458 22.8939 13.8785 22.8113 13.8888 22.7244C13.8939 22.6701 13.8898 22.6154 13.8768 22.5624C13.8747 22.5502 13.8714 22.5381 13.8672 22.5264L13.86 22.5036C13.8205 22.38 13.7605 22.264 13.6824 22.1604C13.5315 21.9743 13.3334 21.8322 13.1088 21.7488C12.9164 21.676 12.7141 21.6327 12.5088 21.6204C12.134 21.5951 11.7576 21.6328 11.3952 21.732C11.0401 21.8244 10.7008 21.9692 10.3884 22.1616C10.3104 22.2108 10.2336 22.2648 10.1592 22.3224L10.1352 22.308C10.0168 22.2235 9.9067 22.1278 9.80641 22.0224C9.71436 21.9205 9.63903 21.8047 9.58321 21.6792C9.54528 21.6008 9.52558 21.5149 9.52558 21.4278C9.52558 21.3407 9.54528 21.2548 9.58321 21.1764C9.64081 21.1956 9.70321 21.2136 9.75721 21.2304C10.1105 21.3271 10.4721 21.3906 10.8372 21.42C11.5497 21.4815 12.2672 21.4447 12.9696 21.3108C13.3488 21.2455 13.7171 21.128 14.064 20.9616C14.1739 20.9062 14.277 20.8381 14.3712 20.7588C14.4003 20.734 14.4279 20.7076 14.454 20.6796C14.485 20.6474 14.5134 20.6129 14.5392 20.5764C14.5702 20.5342 14.5971 20.4892 14.6196 20.442C14.6673 20.339 14.6914 20.2267 14.6904 20.1132C14.6936 20.0733 14.6936 20.0331 14.6904 19.9932C14.6809 19.9038 14.6579 19.8164 14.622 19.734C14.5551 19.579 14.4493 19.4438 14.3148 19.3416C14.2097 19.2619 14.0932 19.1984 13.9692 19.1532C13.8655 19.1147 13.7587 19.085 13.65 19.0644C13.4557 19.0281 13.2585 19.01 13.0608 19.0104C12.6944 19.0106 12.3289 19.048 11.97 19.122C11.2593 19.2553 10.5771 19.5111 9.95401 19.878C9.79053 19.9787 9.6356 20.0927 9.49081 20.2188C9.43787 20.188 9.39141 20.1473 9.35401 20.0988C9.32641 20.0472 9.32161 20.0304 9.33961 19.9404C9.36364 19.8392 9.41182 19.7453 9.48001 19.6668C9.67566 19.4759 9.90848 19.3272 10.164 19.23C10.77 19.0013 11.3911 18.8148 12.0228 18.672C12.7018 18.514 13.3709 18.3164 14.0268 18.0804C14.3642 17.9467 14.6928 17.792 15.0108 17.6172C15.3304 17.444 15.6383 17.25 15.9324 17.0364C16.5303 16.6042 17.0647 16.0904 17.52 15.51C17.9814 14.92 18.3497 14.2628 18.612 13.5612C18.8743 12.8538 19.0233 12.1095 19.0536 11.3556C19.1221 9.81351 18.6605 8.29445 17.7456 7.05121C17.2842 6.42839 16.7143 5.89384 16.0632 5.47321V5.47321ZM12.198 11.8512C12.1936 11.9441 12.1694 12.0351 12.127 12.1179C12.0846 12.2007 12.0249 12.2734 11.952 12.3312C11.8918 12.3744 11.8184 12.3954 11.7445 12.3906C11.6705 12.3857 11.6005 12.3554 11.5464 12.3048C11.526 12.2872 11.5095 12.2655 11.4979 12.2411C11.4863 12.2167 11.48 12.1902 11.4792 12.1632C11.4742 12.0714 11.4881 11.9795 11.52 11.8932C11.6011 11.6798 11.7234 11.4845 11.88 11.3184C11.9231 11.2693 11.9688 11.2224 12.0168 11.178C12.0288 11.1996 12.042 11.2212 12.0528 11.2428C12.1031 11.3438 12.1433 11.4495 12.1728 11.5584C12.199 11.6536 12.2076 11.7529 12.198 11.8512V11.8512ZM13.1832 22.494C13.2 22.482 13.1916 22.4904 13.1832 22.494V22.494ZM12.4368 22.3896C12.5676 22.4046 12.6961 22.4352 12.8196 22.4808C12.8821 22.5044 12.9407 22.5372 12.9936 22.578C12.9432 22.596 12.8892 22.6116 12.834 22.626C12.2245 22.7702 11.5907 22.7784 10.9776 22.65C10.9188 22.6368 10.8576 22.6212 10.8048 22.6044C11.3273 22.4175 11.8837 22.3443 12.4368 22.3896V22.3896ZM13.7004 20.1012C13.7136 20.1168 13.7004 20.1156 13.7004 20.1012V20.1012ZM12.1104 19.9728C12.4149 19.9305 12.7226 19.9164 13.0296 19.9308C13.1687 19.9376 13.3069 19.9573 13.4424 19.9896C13.4975 20.0027 13.5514 20.0208 13.6032 20.0436C13.4791 20.1014 13.3502 20.1484 13.218 20.184C13.0764 20.2248 12.9264 20.2608 12.774 20.2908C12.1522 20.409 11.5206 20.4685 10.8876 20.4684C10.7412 20.4684 10.5948 20.4684 10.452 20.4504C10.9771 20.2073 11.5364 20.0463 12.1104 19.9728V19.9728Z" fill="#7111EE"/>
</g>
<defs>
<clipPath id="clip0_11_32">
<rect width="24" height="24" fill="white"/>
</clipPath>
</defs>
</svg>
