<svg width="29" height="29" viewBox="0 0 29 29" fill="none" xmlns="http://www.w3.org/2000/svg">
<path opacity="0.3" d="M17.2706 20.1878C16.7987 19.7159 16.7987 18.9508 17.2706 18.4789C17.7425 18.007 18.5076 18.007 18.9794 18.4789L23.8128 23.3122C24.2847 23.7841 24.2847 24.5492 23.8128 25.0211C23.3409 25.493 22.5758 25.493 22.1039 25.0211L17.2706 20.1878Z" fill="#3F4254"/>
<path fill-rule="evenodd" clip-rule="evenodd" d="M4.83331 13.2917C4.83331 17.9631 8.62024 21.75 13.2916 21.75C17.9631 21.75 21.75 17.9631 21.75 13.2917C21.75 8.62026 17.9631 4.83334 13.2916 4.83334C8.62024 4.83334 4.83331 8.62026 4.83331 13.2917ZM19.3333 13.2917C19.3333 16.6284 16.6284 19.3333 13.2916 19.3333C9.95493 19.3333 7.24998 16.6284 7.24998 13.2917C7.24998 9.95495 9.95493 7.25 13.2916 7.25C16.6284 7.25 19.3333 9.95495 19.3333 13.2917Z" fill="#3F4254"/>
</svg>
