<svg width="32" height="33" viewBox="0 0 32 33" fill="none" xmlns="http://www.w3.org/2000/svg">
<path opacity="0.25" d="M2.66663 9.16669C2.66663 5.85298 5.35292 3.16669 8.66663 3.16669H23.3333C26.647 3.16669 29.3333 5.85298 29.3333 9.16669V9.16669C29.3333 12.4804 26.647 15.1667 23.3333 15.1667H8.66663C5.35292 15.1667 2.66663 12.4804 2.66663 9.16669V9.16669Z" fill="#B5B5C3"/>
<path d="M26.6667 9.16665C26.6667 11.0076 25.1743 12.5 23.3333 12.5C21.4924 12.5 20 11.0076 20 9.16665C20 7.3257 21.4924 5.83331 23.3333 5.83331C25.1743 5.83331 26.6667 7.3257 26.6667 9.16665Z" fill="#B5B5C3"/>
<path opacity="0.25" d="M2.66663 23.8333C2.66663 20.5196 5.35292 17.8333 8.66663 17.8333H23.3333C26.647 17.8333 29.3333 20.5196 29.3333 23.8333V23.8333C29.3333 27.147 26.647 29.8333 23.3333 29.8333H8.66663C5.35292 29.8333 2.66663 27.147 2.66663 23.8333V23.8333Z" fill="#B5B5C3"/>
<path d="M12 23.8333C12 25.6743 10.5077 27.1667 8.66671 27.1667C6.82576 27.1667 5.33337 25.6743 5.33337 23.8333C5.33337 21.9924 6.82576 20.5 8.66671 20.5C10.5077 20.5 12 21.9924 12 23.8333Z" fill="#B5B5C3"/>
</svg>
