<svg width="24" height="24" viewBox="0 0 24 24" fill="none" xmlns="http://www.w3.org/2000/svg">
<path d="M7.75931 21.0684V8.1084L8.99291 6.6684V20.562C9.74327 20.1292 10.3664 19.5064 10.7995 18.7562C11.2326 18.006 11.4605 17.155 11.4601 16.2888V0L5.29211 7.2V21.228H6.52571C6.94201 21.2272 7.35652 21.1736 7.75931 21.0684V21.0684Z" fill="#7111EE"/>
<path d="M18.8628 22.458V11.8236L12.6936 4.6236V16.2864C12.692 17.9219 12.0417 19.4899 10.8854 20.6465C9.72903 21.8031 8.1611 22.4537 6.52562 22.4556H2.52002V24H15.162V11.2968L16.3956 12.7368V24H21.48V22.458H18.8628Z" fill="#7111EE"/>
</svg>
