<svg width="24" height="24" viewBox="0 0 24 24" fill="none" xmlns="http://www.w3.org/2000/svg">
<g clip-path="url(#clip0_11_41)">
<path d="M1.71003 19.9308C3.51723 22.9308 7.86603 23.004 9.67083 19.998C10.2422 19.0459 10.5634 17.9648 10.6044 16.8552L10.662 15.318C10.662 15.318 7.92003 17.82 6.78963 17.6664C6.40803 17.6148 6.69843 16.9068 6.83643 16.5564C7.36083 15.2364 10.5468 11.9892 10.5468 11.9892C10.5468 11.9892 10.8 7.38959 11.25 6.12839C11.4828 5.4756 11.7528 5.1768 12 5.058C12.2472 5.178 12.5172 5.4756 12.75 6.12839C13.2 7.38959 13.4532 11.9892 13.4532 11.9892C13.4532 11.9892 16.6392 15.2292 17.1636 16.5564C17.3016 16.9068 17.592 17.6148 17.2104 17.6664C16.0788 17.82 13.338 15.318 13.338 15.318L13.3956 16.8552C13.439 18.0274 13.7949 19.1667 14.4264 20.1552C16.2384 22.9896 20.4444 22.9152 22.2144 20.0556C23.3687 18.1907 23.9866 16.0436 24 13.8504C24.0492 7.33679 18.8016 1.914 12.288 1.7616C10.1409 1.71017 8.01922 2.23598 6.14455 3.28413C4.26988 4.33229 2.71088 5.86438 1.63025 7.72052C0.549613 9.57666 -0.0130452 11.6888 0.000988665 13.8366C0.0150226 15.9843 0.605234 18.0889 1.71003 19.9308V19.9308Z" fill="#7111EE"/>
<path d="M1.71003 19.9308C3.51723 22.9308 7.86603 23.004 9.67083 19.998C10.2422 19.0459 10.5634 17.9648 10.6044 16.8552L10.662 15.318C10.662 15.318 7.92003 17.82 6.78963 17.6664C6.40803 17.6148 6.69843 16.9068 6.83643 16.5564C7.36083 15.2364 10.5468 11.9892 10.5468 11.9892C10.5468 11.9892 10.8 7.38959 11.25 6.12839C11.4828 5.4756 11.7528 5.1768 12 5.058C12.2472 5.178 12.5172 5.4756 12.75 6.12839C13.2 7.38959 13.4532 11.9892 13.4532 11.9892C13.4532 11.9892 16.6392 15.2292 17.1636 16.5564C17.3016 16.9068 17.592 17.6148 17.2104 17.6664C16.0788 17.82 13.338 15.318 13.338 15.318L13.3956 16.8552C13.439 18.0274 13.7949 19.1667 14.4264 20.1552C16.2384 22.9896 20.4444 22.9152 22.2144 20.0556C23.3687 18.1907 23.9866 16.0436 24 13.8504C24.0492 7.33679 18.8016 1.914 12.288 1.7616C10.1409 1.71017 8.01922 2.23598 6.14455 3.28413C4.26988 4.33229 2.71088 5.86438 1.63025 7.72052C0.549613 9.57666 -0.0130452 11.6888 0.000988665 13.8366C0.0150226 15.9843 0.605234 18.0889 1.71003 19.9308V19.9308Z" fill="#7111EE"/>
</g>
<defs>
<clipPath id="clip0_11_41">
<rect width="24" height="24" fill="white"/>
</clipPath>
</defs>
</svg>
