<svg width="36" height="37" viewBox="0 0 36 37" fill="none" xmlns="http://www.w3.org/2000/svg">
<rect y="0.5" width="36" height="36" rx="12" fill="#C9F7F5"/>
<g clip-path="url(#clip0_29_106)">
<path d="M22.3456 25.892C21.3411 25.5718 18.8613 25.4209 17.5423 25.4121C16.2233 25.4209 13.7434 25.5718 12.7389 25.892L17.5423 30.2751L22.3456 25.892Z" fill="#A63F44"/>
<path d="M26.9465 34.8398L26.3385 29.9756C26.2467 29.2414 25.7415 28.6252 25.0396 28.3912L23.3018 27.8119C23.3064 27.7839 23.3675 27.3571 22.8512 27.0129C22.431 26.7326 22.9814 26.2223 22.3409 25.892L20.7297 27.3422C20.5394 27.1644 20.4243 26.9128 20.4243 26.6407V25.0914L22.4935 24.2293C23.5674 23.7818 24.267 22.7325 24.267 21.569V15.2645C24.267 13.9381 23.1917 12.8629 21.8654 12.8629H13.2193C11.8929 12.8629 10.8176 13.9381 10.8176 15.2645V21.569C10.8176 22.7324 11.5172 23.7817 12.5911 24.2293L14.6603 25.0914V26.6406C14.6603 26.9138 14.5442 27.1664 14.3526 27.3443L12.7388 25.892C12.0984 26.2223 12.6488 26.7326 12.2285 27.0129C11.6946 27.3687 11.7781 27.813 11.7782 27.8134L10.0449 28.3912C9.34292 28.6252 8.83772 29.2414 8.74598 29.9756L8.13799 34.8398C8.03046 35.6998 8.70113 36.4595 9.5679 36.4595H9.5814H25.5031H25.5166C26.3833 36.4595 27.054 35.6998 26.9465 34.8398Z" fill="#FDC88E"/>
<path d="M20.4243 25.0916L14.6602 23.8107V26.6408C14.6602 26.9865 14.4689 27.2911 14.1789 27.4609C18.2073 28.166 20.4243 25.0916 20.4243 25.0916Z" fill="#FDC88E"/>
<path d="M22.4933 24.2294L19.3895 25.5227C18.8041 25.7666 18.1763 25.8922 17.5421 25.8922C16.9079 25.8922 16.28 25.7666 15.6946 25.5227L12.591 24.2295C11.517 23.782 10.8174 22.7326 10.8174 21.5691V15.2647C10.8174 13.9383 11.8927 12.863 13.2191 12.863H21.8652C23.1916 12.863 24.2669 13.9383 24.2669 15.2647V21.5691C24.2669 22.7326 23.5674 23.7819 22.4933 24.2294Z" fill="#FFE1B2"/>
<path d="M14.1797 20.1281C13.9156 20.1281 13.6994 19.9119 13.6994 19.6477V19.1674C13.6994 18.9032 13.9156 18.6871 14.1797 18.6871C14.4439 18.6871 14.6601 18.9032 14.6601 19.1674V19.6477C14.6601 19.9119 14.4439 20.1281 14.1797 20.1281Z" fill="#623F33"/>
<path d="M20.9046 20.1281C20.6404 20.1281 20.4242 19.9119 20.4242 19.6477V19.1674C20.4242 18.9032 20.6404 18.6871 20.9046 18.6871C21.1687 18.6871 21.3849 18.9032 21.3849 19.1674V19.6477C21.3849 19.9119 21.1687 20.1281 20.9046 20.1281Z" fill="#623F33"/>
<path d="M17.5421 23.5036C16.6882 23.5036 15.8894 23.2934 15.3506 22.9269C15.1313 22.7777 15.0743 22.4789 15.2237 22.2596C15.3726 22.0406 15.6717 21.9835 15.891 22.1327C16.2686 22.3895 16.8859 22.543 17.5421 22.543C18.1984 22.543 18.8157 22.3895 19.1933 22.1327C19.4131 21.9831 19.7114 22.0403 19.8605 22.2596C20.0099 22.4789 19.953 22.7777 19.7337 22.9269C19.1949 23.2934 18.3961 23.5036 17.5421 23.5036Z" fill="#E4B07B"/>
<path d="M19.8238 17.9666V14.7243L10.8175 14.6643V21.5691C10.8175 22.7326 11.5171 23.782 12.591 24.2295L15.6946 25.5227C15.8465 25.586 16.0015 25.6405 16.1585 25.6877C14.7869 24.6844 13.8739 23.8072 13.339 23.2337C12.9498 22.8164 12.7389 22.2658 12.7389 21.6951V16.4056C13.6095 16.8859 16.5215 17.9666 19.8238 17.9666Z" fill="#FFD7A3"/>
<path d="M26.9611 34.7919L26.3284 29.9309C26.2328 29.1972 25.7245 28.5835 25.0214 28.3531L22.305 27.4629C22.0884 27.3919 21.8475 27.4807 21.7396 27.6815C20.9337 29.1814 17.7194 30.2142 17.5334 30.2151C17.3475 30.2161 14.1229 29.2161 13.3017 27.7245C13.1917 27.5248 12.95 27.4384 12.7342 27.5116L10.0269 28.4294C9.32618 28.6669 8.8241 29.2857 8.73608 30.0203L8.15283 34.8875C8.04968 35.7481 8.72419 36.5044 9.59096 36.5L25.5395 36.4189C26.4062 36.4145 27.0729 35.6514 26.9611 34.7919Z" fill="#FF4F4F"/>
<path d="M9.1464 29.0244C8.93313 29.2944 8.79035 29.6206 8.74598 29.9756L8.13799 34.8397C8.03046 35.6998 8.70113 36.4595 9.5679 36.4595H12.2586V33.3333C12.2586 32.8711 12.092 32.4245 11.7895 32.0752L9.1464 29.0244Z" fill="#F23F44"/>
<path d="M25.938 29.0244C26.1512 29.2944 26.294 29.6206 26.3384 29.9756L26.9464 34.8397C27.0539 35.6998 26.3832 36.4595 25.5165 36.4595H22.8258V33.3333C22.8258 32.8711 22.9924 32.4245 23.2949 32.0752L25.938 29.0244Z" fill="#F23F44"/>
<path d="M22.8511 27.013C22.4308 26.7327 22.9812 26.2224 22.3407 25.8922L17.5398 30.213L12.7387 25.8922C12.0983 26.2224 12.6487 26.7327 12.2284 27.013C11.6943 27.369 11.7781 27.8136 11.7781 27.8136L17.5374 30.6932V30.6955L17.5398 30.6943L17.5422 30.6955V30.6931L23.3014 27.8135C23.3014 27.8135 23.3852 27.369 22.8511 27.013Z" fill="#F23F44"/>
<path d="M17.5422 33.0972C15.6852 33.0972 14.1798 34.6025 14.1798 36.4595H20.9046C20.9046 34.6025 19.3992 33.0972 17.5422 33.0972Z" fill="#FFC84A"/>
<path d="M12.9027 14.9005C12.9904 14.9793 14.3 16.2104 16.1013 16.2854V15.3247C16.1013 15.3247 17.3422 16.9159 20.4243 17.3061V15.3247L21.385 17.2461L24.5672 15.655V13.4634C24.5672 11.1422 22.6855 9.2605 20.3643 9.2605H14.7203C12.3991 9.2605 10.5174 11.1422 10.5174 13.4634V17.066L12.9025 14.9004C12.9026 14.9004 12.9026 14.9004 12.9027 14.9005Z" fill="#9D6E48"/>
<path d="M14.3119 9.28052C12.1824 9.48598 10.5174 11.28 10.5174 13.4634V17.0659L12.9025 14.9003C12.9026 14.9004 12.9026 14.9005 12.9027 14.9005C12.9904 14.9793 14.3 16.2103 16.1013 16.2854C14.9471 14.2243 14.3967 10.8303 14.3119 9.28052Z" fill="#8D5F3D"/>
<path d="M9.8567 21.0888H9.37636C9.1111 21.0888 8.89603 20.8737 8.89603 20.6084V19.1674C8.89603 18.9021 9.1111 18.6871 9.37636 18.6871H9.8567C10.122 18.6871 10.337 18.9021 10.337 19.1674V20.6084C10.337 20.8737 10.122 21.0888 9.8567 21.0888Z" fill="#A63F44"/>
<path d="M25.2277 18.6871H25.708C25.9733 18.6871 26.1884 18.9021 26.1884 19.1674V20.6084C26.1884 20.8737 25.9733 21.0888 25.708 21.0888H25.2277C24.9624 21.0888 24.7473 20.8737 24.7473 20.6084V19.1674C24.7473 18.9021 24.9624 18.6871 25.2277 18.6871Z" fill="#A63F44"/>
<path d="M25.2275 18.687H24.2668V13.4033C24.2668 11.2845 22.543 9.56065 20.4241 9.56065H14.6601C12.5413 9.56065 10.8174 11.2845 10.8174 13.4033V18.687H9.85672V13.4033C9.85672 10.7549 12.0114 8.59998 14.6601 8.59998H20.4241C23.0728 8.59998 25.2275 10.7549 25.2275 13.4033V18.687Z" fill="#A63F44"/>
<path d="M10.097 22.0495C9.6991 22.0495 9.3765 21.7269 9.3765 21.329V18.4469C9.3765 18.049 9.6991 17.7264 10.097 17.7264C10.4949 17.7264 10.8175 18.049 10.8175 18.4469V21.329C10.8175 21.7269 10.4949 22.0495 10.097 22.0495Z" fill="#F23F44"/>
<path d="M24.9874 17.7264C25.3853 17.7264 25.7079 18.049 25.7079 18.4469V21.329C25.7079 21.7269 25.3853 22.0495 24.9874 22.0495C24.5895 22.0495 24.2669 21.7269 24.2669 21.329V18.4469C24.2669 18.049 24.5895 17.7264 24.9874 17.7264Z" fill="#F23F44"/>
</g>
<defs>
<clipPath id="clip0_29_106">
<rect width="27.9" height="27.9" fill="white" transform="translate(3.60001 8.59998)"/>
</clipPath>
</defs>
</svg>
