<svg width="36" height="37" viewBox="0 0 36 37" fill="none" xmlns="http://www.w3.org/2000/svg">
<rect y="0.5" width="36" height="36" rx="12" fill="#E4FFF4"/>
<g clip-path="url(#clip0_29_146)">
<path d="M26.6769 33.4929L26.5851 33.1786C26.5408 33.0268 26.3929 32.9337 26.2408 32.9531L25.92 30.5478C25.8147 29.7576 25.3246 29.071 24.6116 28.7145L23.5755 28.1964C23.4185 28.1179 23.2385 28.1902 23.1652 28.3417L21.094 27.5796C20.7011 27.4486 20.4362 27.081 20.4362 26.6669V25.1154L22.5083 24.252C23.5839 23.804 24.2845 22.7531 24.2845 21.5879V21.1069C25.0815 21.1069 25.7276 20.4608 25.7276 19.6638C25.7276 18.8667 25.0815 18.2207 24.2845 18.2207V17.2586C24.2845 15.9303 23.2076 13.8914 21.8793 13.8914H13.2207C11.8923 13.8914 10.8155 15.9303 10.8155 17.2586V18.2207C10.0185 18.2207 9.37242 18.8667 9.37242 19.6638C9.37242 20.4608 10.0185 21.1069 10.8155 21.1069V21.5879C10.8155 22.7531 11.5161 23.804 12.5916 24.2521L14.6638 25.1156V26.6669C14.6638 27.0811 14.3988 27.4487 14.006 27.5796L11.9757 28.3267C11.8989 28.1852 11.7256 28.1199 11.5742 28.1957L10.6293 28.6681C9.82297 29.0713 9.33339 29.7577 9.22805 30.5479L8.90732 32.9532C8.75519 32.9338 8.60734 33.0269 8.56296 33.1787L8.4712 33.493C8.42208 33.6613 8.5187 33.8375 8.68695 33.8866L9.37242 34.0865V35.5379C9.37242 36.0692 9.80318 36.5 10.3345 36.5H12.2827H22.8654H24.7655C25.2968 36.5 25.7276 36.0692 25.7276 35.5379V34.1005L26.4611 33.8866C26.6294 33.8375 26.726 33.6612 26.6769 33.4929Z" fill="#FFD7A3"/>
<path d="M20.436 25.0751H14.6636V26.6669C14.6636 27.0092 14.4822 27.3194 14.1975 27.4907C18.2216 28.1859 20.436 25.0751 20.436 25.0751Z" fill="#FDC88E"/>
<path d="M26.3042 33.4294L25.92 30.5477C25.8146 29.7575 25.3246 29.0709 24.6116 28.7144L23.5754 28.1963C23.3999 28.1085 23.195 28.2091 23.1434 28.3985C22.4766 30.8494 20.2361 32.6518 17.5739 32.6518C14.911 32.6518 12.67 30.8485 12.0038 28.3966C11.9526 28.2082 11.7487 28.1082 11.5741 28.1955L10.6292 28.6679C9.82291 29.0711 9.33333 29.7575 9.22799 30.5477L8.83643 33.4841C10.1073 33.9218 12.2826 34.5757 12.2826 34.5757V36.4999H22.8653V34.5757L26.3042 33.4294Z" fill="#8DB9E2"/>
<path d="M12.2707 34.4289C12.2413 33.8569 12.0503 33.3041 11.7054 32.8442L9.4471 29.8331C9.33808 30.0577 9.26148 30.2966 9.22793 30.5479L8.84665 33.4077L12.2707 34.4289Z" fill="#6AA2DE"/>
<path d="M8.4712 33.493C8.42208 33.6613 8.5187 33.8375 8.68695 33.8866L12.2826 34.9355V34.5758C12.2826 34.3486 12.2469 34.126 12.1948 33.9076L8.95645 32.963C8.7882 32.9139 8.61203 33.0105 8.56296 33.1787L8.4712 33.493Z" fill="#4E87BB"/>
<path d="M22.8773 34.4289C22.9067 33.8569 23.0977 33.3041 23.4427 32.8442L25.7009 29.8331C25.8099 30.0577 25.8865 30.2966 25.9201 30.5479L26.3014 33.4077L22.8773 34.4289Z" fill="#6AA2DE"/>
<path d="M26.677 33.493C26.7261 33.6613 26.6295 33.8375 26.4612 33.8866L22.8655 34.9355V34.5758C22.8655 34.3486 22.9012 34.126 22.9534 33.9076L26.1917 32.963C26.3599 32.9139 26.5361 33.0105 26.5852 33.1787L26.677 33.493Z" fill="#4E87BB"/>
<path d="M9.85341 17.2585C8.41031 17.2585 5.52411 17.7997 5.52411 22.0689C5.52411 26.338 4.56204 31.6895 4.56204 31.6895C4.56204 31.6895 9.37238 31.18 9.37238 25.4361C9.37238 20.0846 10.3344 19.1827 10.3344 19.1827L9.85341 17.2585Z" fill="#9D6E48"/>
<path d="M9.37238 25.4361C9.37238 20.0846 10.3344 19.1827 10.3344 19.1827L9.37238 17.7396C8.81618 17.8147 6.68737 17.8299 6.96721 21.5878C7.24783 25.3559 8.65083 29.1641 4.56204 31.6895C4.56204 31.6895 9.37238 31.1799 9.37238 25.4361Z" fill="#8D5F3D"/>
<path d="M10.4233 18.7443L9.82479 17.0946C9.73418 16.8449 9.45825 16.7158 9.20853 16.8064C8.95881 16.8971 8.82978 17.1729 8.92039 17.4227L9.51886 19.0724C9.60947 19.3221 9.8854 19.4512 10.1351 19.3605C10.3848 19.2699 10.5139 18.994 10.4233 18.7443Z" fill="#6AA2DE"/>
<path d="M25.2465 17.2585C26.6896 17.2585 29.5758 17.7997 29.5758 22.0689C29.5758 26.338 30.5379 31.6895 30.5379 31.6895C30.5379 31.6895 25.7276 31.18 25.7276 25.4361C25.7276 20.0846 24.7655 19.1827 24.7655 19.1827L25.2465 17.2585Z" fill="#9D6E48"/>
<path d="M25.7276 25.4361C25.7276 20.0846 24.7655 19.1827 24.7655 19.1827L25.7276 17.7396C26.2838 17.8147 28.4126 17.8299 28.1327 21.5878C27.8521 25.3559 26.4491 29.1641 30.5379 31.6895C30.538 31.6895 25.7276 31.1799 25.7276 25.4361Z" fill="#8D5F3D"/>
<path d="M24.6769 18.7443L25.2754 17.0946C25.366 16.8449 25.6419 16.7158 25.8916 16.8064C26.1413 16.8971 26.2704 17.1729 26.1798 17.4227L25.5813 19.0724C25.4907 19.3221 25.2148 19.4512 24.965 19.3605C24.7153 19.2699 24.5863 18.994 24.6769 18.7443Z" fill="#6AA2DE"/>
<path d="M24.2844 18.2207V17.2586C24.2844 15.9303 23.2076 13.8914 21.8793 13.8914H13.2207C11.8923 13.8914 10.8155 15.9303 10.8155 17.2586V18.2204C10.0185 18.2204 9.37241 18.8665 9.37241 19.6635C9.37241 20.4605 10.0185 21.1066 10.8155 21.1066V21.5879C10.8155 22.7531 11.5161 23.804 12.5916 24.2521L15.6997 25.5472C16.286 25.7915 16.9148 25.9172 17.5499 25.9172C18.185 25.9172 18.8138 25.7914 19.4 25.5472L22.5083 24.252C23.5839 23.804 24.2844 22.7531 24.2844 21.5879V21.1069C25.0815 21.1069 25.7275 20.4608 25.7275 19.6638C25.7275 18.8667 25.0815 18.2207 24.2844 18.2207Z" fill="#FFE1B2"/>
<path d="M14.1827 20.1448C13.9181 20.1448 13.7016 19.9284 13.7016 19.6638V19.1828C13.7016 18.9182 13.9181 18.7017 14.1827 18.7017C14.4472 18.7017 14.6637 18.9182 14.6637 19.1828V19.6638C14.6637 19.9284 14.4472 20.1448 14.1827 20.1448Z" fill="#623F33"/>
<path d="M20.9173 20.1448C20.6527 20.1448 20.4363 19.9284 20.4363 19.6638V19.1828C20.4363 18.9182 20.6527 18.7017 20.9173 18.7017C21.1819 18.7017 21.3983 18.9182 21.3983 19.1828V19.6638C21.3983 19.9284 21.1819 20.1448 20.9173 20.1448Z" fill="#623F33"/>
<path d="M17.5499 23.5251C16.6947 23.5251 15.8947 23.3147 15.3552 22.9476C15.1356 22.7982 15.0785 22.499 15.2282 22.2794C15.3773 22.06 15.6768 22.0029 15.8964 22.1523C16.2745 22.4095 16.8927 22.5631 17.5499 22.5631C18.2071 22.5631 18.8253 22.4095 19.2035 22.1523C19.4235 22.0025 19.7223 22.0598 19.8717 22.2794C20.0213 22.499 19.9642 22.7982 19.7446 22.9476C19.2052 23.3147 18.4051 23.5251 17.5499 23.5251Z" fill="#E4B07B"/>
<path d="M17.132 13.8309C17.0487 16.431 10.8155 18.2206 10.8155 18.2206C10.0185 18.2206 9.37241 18.8667 9.37241 19.6637C9.37241 20.4607 10.0185 21.1068 10.8155 21.1068V21.5878C10.8155 22.753 11.5161 23.8039 12.5916 24.252L15.6997 25.5471C15.8518 25.6105 16.0071 25.6651 16.1643 25.7124C14.7907 24.7076 13.8764 23.8292 13.3406 23.2548C12.9509 22.837 12.7396 22.2855 12.7396 21.714V19.0256C14.1166 18.5449 17.9816 16.9662 18.031 14.3723C18.0347 14.1758 18.032 13.9958 18.0236 13.8309H17.132Z" fill="#FFD7A3"/>
<path d="M19.9551 8.59998C18.3917 8.59998 17.5499 9.08101 17.5499 9.08101C17.5499 9.08101 16.7081 8.59998 15.1448 8.59998C13.5814 8.59998 7.64863 11.6097 9.85338 18.5847C9.85338 18.5847 17.5499 17.2185 17.5499 13.8913C17.5499 17.2185 25.2465 18.5847 25.2465 18.5847C27.4512 11.6097 21.5184 8.59998 19.9551 8.59998Z" fill="#9D6E48"/>
<path d="M17.5498 9.08125V9.08101C17.5498 9.08101 16.708 8.59998 15.1447 8.59998C13.5813 8.59998 7.64861 11.6097 9.8533 18.5847C9.8533 18.5847 10.785 18.419 11.9993 18.0634C10.6403 11.8089 16.0582 9.08606 17.5498 9.08125Z" fill="#8D5F3D"/>
<path d="M17.5498 36.0189C17.8155 36.0189 18.0309 35.8035 18.0309 35.5379C18.0309 35.2722 17.8155 35.0568 17.5498 35.0568C17.2842 35.0568 17.0688 35.2722 17.0688 35.5379C17.0688 35.8035 17.2842 36.0189 17.5498 36.0189Z" fill="#FF8C51"/>
<path d="M13.7018 36.0189C13.9674 36.0189 14.1828 35.8035 14.1828 35.5379C14.1828 35.2722 13.9674 35.0568 13.7018 35.0568C13.4361 35.0568 13.2207 35.2722 13.2207 35.5379C13.2207 35.8035 13.4361 36.0189 13.7018 36.0189Z" fill="#FF8C51"/>
<path d="M21.3982 36.0189C21.6638 36.0189 21.8792 35.8035 21.8792 35.5379C21.8792 35.2722 21.6638 35.0568 21.3982 35.0568C21.1325 35.0568 20.9171 35.2722 20.9171 35.5379C20.9171 35.8035 21.1325 36.0189 21.3982 36.0189Z" fill="#FF8C51"/>
<path d="M19.4741 36.0189C19.7398 36.0189 19.9552 35.8035 19.9552 35.5379C19.9552 35.2722 19.7398 35.0568 19.4741 35.0568C19.2085 35.0568 18.9931 35.2722 18.9931 35.5379C18.9931 35.8035 19.2085 36.0189 19.4741 36.0189Z" fill="#FFC84A"/>
<path d="M15.6258 36.0189C15.8915 36.0189 16.1068 35.8035 16.1068 35.5379C16.1068 35.2722 15.8915 35.0568 15.6258 35.0568C15.3601 35.0568 15.1448 35.2722 15.1448 35.5379C15.1448 35.8035 15.3601 36.0189 15.6258 36.0189Z" fill="#FFC84A"/>
<path d="M18.5121 34.5758C18.7778 34.5758 18.9931 34.3605 18.9931 34.0948C18.9931 33.8291 18.7778 33.6138 18.5121 33.6138C18.2464 33.6138 18.0311 33.8291 18.0311 34.0948C18.0311 34.3605 18.2464 34.5758 18.5121 34.5758Z" fill="#FFC84A"/>
<path d="M14.6638 34.5758C14.9294 34.5758 15.1448 34.3605 15.1448 34.0948C15.1448 33.8291 14.9294 33.6138 14.6638 33.6138C14.3981 33.6138 14.1827 33.8291 14.1827 34.0948C14.1827 34.3605 14.3981 34.5758 14.6638 34.5758Z" fill="#FFC84A"/>
<path d="M22.3602 34.5758C22.6259 34.5758 22.8412 34.3605 22.8412 34.0948C22.8412 33.8291 22.6259 33.6138 22.3602 33.6138C22.0945 33.6138 21.8792 33.8291 21.8792 34.0948C21.8792 34.3605 22.0945 34.5758 22.3602 34.5758Z" fill="#FFC84A"/>
<path d="M12.7395 34.5758C13.0052 34.5758 13.2205 34.3605 13.2205 34.0948C13.2205 33.8291 13.0052 33.6138 12.7395 33.6138C12.4738 33.6138 12.2585 33.8291 12.2585 34.0948C12.2585 34.3605 12.4738 34.5758 12.7395 34.5758Z" fill="#FF8C51"/>
<path d="M20.4361 34.5758C20.7018 34.5758 20.9172 34.3605 20.9172 34.0948C20.9172 33.8291 20.7018 33.6138 20.4361 33.6138C20.1705 33.6138 19.9551 33.8291 19.9551 34.0948C19.9551 34.3605 20.1705 34.5758 20.4361 34.5758Z" fill="#FF8C51"/>
<path d="M16.5878 34.5758C16.8535 34.5758 17.0689 34.3605 17.0689 34.0948C17.0689 33.8291 16.8535 33.6138 16.5878 33.6138C16.3222 33.6138 16.1068 33.8291 16.1068 34.0948C16.1068 34.3605 16.3222 34.5758 16.5878 34.5758Z" fill="#FF8C51"/>
</g>
<defs>
<clipPath id="clip0_29_146">
<rect width="27.9" height="27.9" fill="white" transform="translate(3.60001 8.59998)"/>
</clipPath>
</defs>
</svg>
