<svg width="27" height="27" viewBox="0 0 27 27" fill="none" xmlns="http://www.w3.org/2000/svg">
<path opacity="0.3" d="M13.5 12.375C11.0147 12.375 9 10.3603 9 7.875C9 5.38972 11.0147 3.375 13.5 3.375C15.9853 3.375 18 5.38972 18 7.875C18 10.3603 15.9853 12.375 13.5 12.375Z" fill="#3F4254"/>
<path d="M3.37573 22.7241C3.81179 17.3548 8.16965 14.625 13.4813 14.625C18.8676 14.625 23.293 17.2048 23.6227 22.725C23.6358 22.9449 23.6227 23.625 22.7775 23.625C18.6088 23.625 12.4141 23.625 4.19344 23.625C3.9113 23.625 3.35198 23.0166 3.37573 22.7241Z" fill="#3F4254"/>
</svg>
