<svg width="36" height="37" viewBox="0 0 36 37" fill="none" xmlns="http://www.w3.org/2000/svg">
<rect y="0.5" width="36" height="36" rx="12" fill="#E4FFF4"/>
<g clip-path="url(#clip0_29_208)">
<path d="M27.1628 34.0272L27.1191 33.6342C27.1019 33.4787 26.9618 33.3667 26.8064 33.384L26.7819 33.3867L26.3594 30.0066C26.2675 29.2713 25.7615 28.6542 25.0586 28.4198L22.358 27.5196C22.127 27.4426 21.8741 27.5492 21.7717 27.7701C21.767 27.7802 21.7622 27.7903 21.7575 27.8005L21.0945 27.5795C20.7016 27.4485 20.4367 27.0809 20.4367 26.6668V25.1153L22.5088 24.2519C23.5843 23.8039 24.2848 22.753 24.2848 21.5879V21.1068C25.0818 21.1068 25.7279 20.4607 25.7279 19.6637C25.7279 19.3322 25.6158 19.027 25.4279 18.7834C25.7171 17.3513 26.2439 14.5615 26.2071 13.4103C26.1826 12.6406 25.6951 11.6103 24.283 11.0051C21.7589 9.92336 18.5943 9.60239 17.5504 8.60148V8.59998C17.5501 8.60022 17.5497 8.60046 17.5495 8.6007C17.5492 8.60046 17.5488 8.60022 17.5486 8.59998V8.60148C16.5046 9.60239 13.34 9.92336 10.8159 11.0051C9.40372 11.6103 8.91638 12.6406 8.89179 13.4103C8.85499 14.562 9.38226 17.3537 9.67136 18.7852C9.4843 19.0286 9.37282 19.3331 9.37282 19.6637C9.37282 20.4607 10.0189 21.1068 10.8159 21.1068V21.5879C10.8159 22.753 11.5165 23.8038 12.592 24.252L14.6642 25.1155V26.6669C14.6642 27.081 14.3992 27.4486 14.0064 27.5796L13.3434 27.8006C13.3387 27.7905 13.3338 27.7804 13.3291 27.7702C13.2267 27.5493 12.9738 27.4427 12.7429 27.5197L10.0422 28.42C9.33927 28.6543 8.83334 29.2714 8.74146 30.0067L8.31894 33.3868L8.29446 33.3841C8.13897 33.3668 7.99899 33.4789 7.98167 33.6343L7.93802 34.0273C7.92076 34.1828 8.03278 34.3228 8.18822 34.3401L8.89185 34.4182V35.5379C8.89185 36.0692 9.32255 36.5 9.85391 36.5H12.2591H22.8418H25.2469C25.7783 36.5 26.209 36.0692 26.209 35.5379V34.4182L26.9126 34.3401C27.068 34.3227 27.1801 34.1827 27.1628 34.0272Z" fill="#F6B47B"/>
<path d="M14.6636 25.0754V26.6669C14.6636 27.0092 14.4822 27.3194 14.1975 27.4907C18.2217 28.186 20.436 25.0754 20.436 25.0754H14.6636V25.0754Z" fill="#E2A071"/>
<path d="M26.2067 13.4103C26.1822 12.6406 25.6947 11.6103 24.2826 11.0051C21.7585 9.92336 18.5939 9.60239 17.55 8.60148V8.59998C17.5497 8.60022 17.5493 8.60046 17.5491 8.6007C17.5488 8.60046 17.5484 8.60022 17.5482 8.59998V8.60148C16.5042 9.60239 13.3396 9.92336 10.8155 11.0051C9.40332 11.6103 8.91598 12.6406 8.89139 13.4103C8.84088 14.9913 9.85345 19.6637 9.85345 19.6637H25.2447C25.2447 19.6637 26.2573 14.9913 26.2067 13.4103Z" fill="#9D6E48"/>
<path d="M17.5482 8.59998V8.60148C16.5042 9.60239 13.3396 9.92336 10.8155 11.0051C9.40332 11.6103 8.91598 12.6406 8.89139 13.4103C8.84088 14.9913 9.85345 19.6637 9.85345 19.6637H14.1827C14.1827 19.6637 14.1827 16.8469 14.1827 15.3344C14.1827 12.1275 17.55 10.6043 17.55 8.59998C17.5497 8.60022 17.5493 8.60046 17.5491 8.6007C17.5488 8.60046 17.5484 8.60022 17.5482 8.59998Z" fill="#8D5F3D"/>
<path d="M26.3589 30.0066C26.267 29.2714 25.761 28.6542 25.0581 28.4199L22.3575 27.5196C22.1265 27.4427 21.8736 27.5493 21.7712 27.7701C21.1037 29.2099 20.1601 30.7767 17.5499 32.6516C14.9397 30.7767 13.9961 29.2099 13.3286 27.7701C13.2262 27.5492 12.9732 27.4426 12.7423 27.5196L10.0416 28.4198C9.33865 28.6541 8.83272 29.2713 8.74085 30.0066L8.28333 33.6667L12.2585 34.0947V36.4998H22.8412V34.0947L26.8164 33.6667L26.3589 30.0066Z" fill="#4F6E7F"/>
<path d="M24.2844 18.2207V17.2586C24.2844 15.9303 23.2076 14.8535 21.8793 14.8535H13.2207C11.8924 14.8535 10.8155 15.9303 10.8155 17.2586V18.2207C10.0185 18.2207 9.37242 18.8668 9.37242 19.6638C9.37242 20.4608 10.0185 21.1069 10.8155 21.1069V21.5879C10.8155 22.753 11.5161 23.8039 12.5916 24.2521L15.6997 25.5472C16.286 25.7915 16.9148 25.9172 17.5499 25.9172C18.185 25.9172 18.8138 25.7915 19.4 25.5472L22.5083 24.252C23.5839 23.804 24.2844 22.7531 24.2844 21.5879V21.1069C25.0814 21.1069 25.7275 20.4608 25.7275 19.6638C25.7275 18.8668 25.0814 18.2207 24.2844 18.2207Z" fill="#FDC88E"/>
<path d="M14.1828 20.1447C13.9182 20.1447 13.7018 19.9282 13.7018 19.6637V19.1826C13.7018 18.9181 13.9182 18.7016 14.1828 18.7016C14.4474 18.7016 14.6638 18.9181 14.6638 19.1826V19.6637C14.6638 19.9282 14.4474 20.1447 14.1828 20.1447Z" fill="#623F33"/>
<path d="M20.9172 20.1447C20.6526 20.1447 20.4361 19.9282 20.4361 19.6637V19.1826C20.4361 18.9181 20.6526 18.7016 20.9172 18.7016C21.1817 18.7016 21.3982 18.9181 21.3982 19.1826V19.6637C21.3982 19.9282 21.1817 20.1447 20.9172 20.1447Z" fill="#623F33"/>
<path d="M17.5498 23.5251C16.6946 23.5251 15.8946 23.3147 15.3551 22.9476C15.1355 22.7982 15.0784 22.499 15.228 22.2794C15.3772 22.06 15.6767 22.0029 15.8963 22.1523C16.2744 22.4095 16.8926 22.5631 17.5498 22.5631C18.207 22.5631 18.8252 22.4095 19.2034 22.1523C19.4234 22.0025 19.7222 22.0598 19.8716 22.2794C20.0212 22.499 19.9641 22.7982 19.7445 22.9476C19.2051 23.3147 18.405 23.5251 17.5498 23.5251Z" fill="#E2A071"/>
<path d="M13.3406 23.2548C12.9508 22.8369 12.7396 22.2855 12.7396 21.714V14.9019C11.6418 15.1248 10.8155 16.095 10.8155 17.2586V18.2206C10.0184 18.2206 9.37236 18.8667 9.37236 19.6637C9.37236 20.4607 10.0184 21.1068 10.8155 21.1068V21.5878C10.8155 22.753 11.516 23.8039 12.5915 24.252L15.6996 25.5471C15.8517 25.6105 16.007 25.6651 16.1642 25.7124C14.7906 24.7075 13.8763 23.8292 13.3406 23.2548Z" fill="#F6B47B"/>
<path d="M12.2586 34.4579V33.3692C12.2586 32.9064 12.0918 32.4591 11.7888 32.1093L9.14198 29.054C8.9284 29.3244 8.78541 29.651 8.74098 30.0066L8.23854 34.026C9.00362 34.072 11.0386 34.3104 12.2586 34.4579Z" fill="#33546A"/>
<path d="M12.2586 33.8245L8.29388 33.384C8.13839 33.3668 7.99841 33.4788 7.98109 33.6342L7.93744 34.0272C7.92018 34.1826 8.0322 34.3227 8.18764 34.3399L12.2586 34.7923V33.8245Z" fill="#4F6E7F"/>
<path d="M22.8413 34.4579V33.3692C22.8413 32.9064 23.0081 32.4591 23.3111 32.1093L25.958 29.054C26.1715 29.3244 26.3145 29.651 26.359 30.0066L26.8614 34.026C26.0964 34.072 24.0613 34.3104 22.8413 34.4579Z" fill="#33546A"/>
<path d="M22.8413 33.8245L26.806 33.384C26.9615 33.3668 27.1015 33.4788 27.1188 33.6342L27.1625 34.0272C27.1797 34.1826 27.0677 34.3227 26.9123 34.3399L22.8413 34.7923V33.8245Z" fill="#4F6E7F"/>
<path d="M19.8301 14.613C20.505 15.0908 21.9802 16.2443 22.8412 17.7397C22.8412 17.7397 22.8623 16.0589 21.9571 14.613H19.8301Z" fill="#9D6E48"/>
</g>
<defs>
<clipPath id="clip0_29_208">
<rect width="27.9" height="27.9" fill="white" transform="translate(3.60001 8.59998)"/>
</clipPath>
</defs>
</svg>
