<svg width="24" height="24" viewBox="0 0 24 24" fill="none" xmlns="http://www.w3.org/2000/svg">
<g clip-path="url(#clip0_11_1)">
<path d="M11.9892 7.0512C11.5926 7.04488 11.1989 7.11964 10.8322 7.27089C10.4655 7.42215 10.1336 7.64671 9.85681 7.9308C9.57163 8.20105 9.34502 8.527 9.19103 8.88845C9.03704 9.2499 8.95895 9.63913 8.96161 10.032C8.95716 10.4334 9.03252 10.8318 9.18333 11.2038C9.33413 11.5759 9.55736 11.9142 9.84006 12.1993C10.1228 12.4843 10.4593 12.7103 10.8301 12.8642C11.2009 13.0181 11.5986 13.0967 12 13.0956C12.8026 13.0978 13.5733 12.7816 14.1429 12.2162C14.7125 11.6508 15.0346 10.8826 15.0384 10.08C15.0383 9.68058 14.9591 9.28513 14.8056 8.91639C14.6521 8.54766 14.4271 8.21292 14.1437 7.93143C13.8604 7.64994 13.5241 7.42727 13.1544 7.2762C12.7846 7.12514 12.3886 7.04867 11.9892 7.0512V7.0512Z" fill="#7111EE"/>
<path d="M12 0C8.8174 0 5.76515 1.26428 3.51472 3.51472C1.26428 5.76515 0 8.8174 0 12L0 21.12C0 21.8838 0.303428 22.6164 0.843532 23.1565C1.38364 23.6966 2.11618 24 2.88 24H12C15.1826 24 18.2348 22.7357 20.4853 20.4853C22.7357 18.2348 24 15.1826 24 12C24 8.8174 22.7357 5.76515 20.4853 3.51472C18.2348 1.26428 15.1826 0 12 0V0ZM15.8184 14.0892L10.2108 21.6672L8.4312 20.3472L12.2712 15.1404C12.0636 15.168 11.8872 15.1896 11.7408 15.2028C11.5944 15.216 11.478 15.2232 11.3808 15.2232C10.0832 15.2232 8.9596 14.73 8.01 13.7436C7.55198 13.2775 7.1914 12.7248 6.94931 12.1179C6.70722 11.5109 6.58848 10.8618 6.6 10.2084C6.58943 9.50619 6.72342 8.80931 6.99365 8.16109C7.26388 7.51287 7.66457 6.92717 8.1708 6.4404C8.6618 5.93428 9.25094 5.5337 9.90214 5.26319C10.5533 4.99268 11.2529 4.85793 11.958 4.8672C12.6655 4.86016 13.3673 4.99369 14.0228 5.26004C14.6783 5.52639 15.2743 5.92026 15.7764 6.4188C16.8588 7.4484 17.4 8.6632 17.4 10.0632C17.4 11.3056 16.8728 12.6476 15.8184 14.0892Z" fill="#7111EE"/>
</g>
<defs>
<clipPath id="clip0_11_1">
<rect width="24" height="24" fill="white"/>
</clipPath>
</defs>
</svg>
